G04 #@! TF.GenerationSoftware,KiCad,Pcbnew,9.0.4-9.0.4-0~ubuntu24.04.1*
G04 #@! TF.CreationDate,2026-02-16T20:27:28+09:00*
G04 #@! TF.ProjectId,Cygolite-Clone,4379676f-6c69-4746-952d-436c6f6e652e,rev?*
G04 #@! TF.SameCoordinates,Original*
G04 #@! TF.FileFunction,Paste,Top*
G04 #@! TF.FilePolarity,Positive*
%FSLAX46Y46*%
G04 Gerber Fmt 4.6, Leading zero omitted, Abs format (unit mm)*
G04 Created by KiCad (PCBNEW 9.0.4-9.0.4-0~ubuntu24.04.1) date 2026-02-16 20:27:28*
%MOMM*%
%LPD*%
G01*
G04 APERTURE LIST*
G04 Aperture macros list*
%AMRoundRect*
0 Rectangle with rounded corners*
0 $1 Rounding radius*
0 $2 $3 $4 $5 $6 $7 $8 $9 X,Y pos of 4 corners*
0 Add a 4 corners polygon primitive as box body*
4,1,4,$2,$3,$4,$5,$6,$7,$8,$9,$2,$3,0*
0 Add four circle primitives for the rounded corners*
1,1,$1+$1,$2,$3*
1,1,$1+$1,$4,$5*
1,1,$1+$1,$6,$7*
1,1,$1+$1,$8,$9*
0 Add four rect primitives between the rounded corners*
20,1,$1+$1,$2,$3,$4,$5,0*
20,1,$1+$1,$4,$5,$6,$7,0*
20,1,$1+$1,$6,$7,$8,$9,0*
20,1,$1+$1,$8,$9,$2,$3,0*%
G04 Aperture macros list end*
%ADD10C,0.000000*%
%ADD11RoundRect,0.237500X-0.237500X0.250000X-0.237500X-0.250000X0.237500X-0.250000X0.237500X0.250000X0*%
%ADD12RoundRect,0.237500X0.250000X0.237500X-0.250000X0.237500X-0.250000X-0.237500X0.250000X-0.237500X0*%
%ADD13RoundRect,0.237500X-0.250000X-0.237500X0.250000X-0.237500X0.250000X0.237500X-0.250000X0.237500X0*%
%ADD14RoundRect,0.150000X0.512500X0.150000X-0.512500X0.150000X-0.512500X-0.150000X0.512500X-0.150000X0*%
%ADD15RoundRect,0.250000X-0.650000X1.000000X-0.650000X-1.000000X0.650000X-1.000000X0.650000X1.000000X0*%
%ADD16RoundRect,0.237500X0.237500X-0.250000X0.237500X0.250000X-0.237500X0.250000X-0.237500X-0.250000X0*%
%ADD17RoundRect,0.237500X-0.237500X0.300000X-0.237500X-0.300000X0.237500X-0.300000X0.237500X0.300000X0*%
%ADD18R,1.397000X1.600200*%
%ADD19R,0.533400X1.460500*%
%ADD20R,0.609600X1.193800*%
%ADD21RoundRect,0.237500X-0.300000X-0.237500X0.300000X-0.237500X0.300000X0.237500X-0.300000X0.237500X0*%
%ADD22RoundRect,0.150000X-0.150000X0.825000X-0.150000X-0.825000X0.150000X-0.825000X0.150000X0.825000X0*%
G04 APERTURE END LIST*
D10*
G04 #@! TO.C,U3*
G36*
X167032000Y-123026500D02*
G01*
X165682600Y-123026500D01*
X165682600Y-120813500D01*
X167032000Y-120813500D01*
X167032000Y-123026500D01*
G37*
G36*
X168581400Y-123026500D02*
G01*
X167232000Y-123026500D01*
X167232000Y-120813500D01*
X168581400Y-120813500D01*
X168581400Y-123026500D01*
G37*
G04 #@! TD*
D11*
G04 #@! TO.C,R4*
X150622000Y-124309500D03*
X150622000Y-126134500D03*
G04 #@! TD*
D12*
G04 #@! TO.C,R8*
X154836500Y-116586000D03*
X153011500Y-116586000D03*
G04 #@! TD*
D13*
G04 #@! TO.C,R2*
X145217500Y-122260000D03*
X147042500Y-122260000D03*
G04 #@! TD*
D14*
G04 #@! TO.C,U2*
X153029500Y-122108000D03*
X153029500Y-121158000D03*
X153029500Y-120208000D03*
X150754500Y-120208000D03*
X150754500Y-122108000D03*
G04 #@! TD*
D11*
G04 #@! TO.C,R6*
X171323000Y-124284100D03*
X171323000Y-126109100D03*
G04 #@! TD*
D15*
G04 #@! TO.C,D1*
X142220000Y-119372500D03*
X142220000Y-123372500D03*
G04 #@! TD*
D11*
G04 #@! TO.C,R7*
X155448000Y-125579500D03*
X155448000Y-127404500D03*
G04 #@! TD*
D16*
G04 #@! TO.C,R9*
X161036000Y-116228500D03*
X161036000Y-114403500D03*
G04 #@! TD*
D17*
G04 #@! TO.C,C1*
X149098000Y-124359500D03*
X149098000Y-126084500D03*
G04 #@! TD*
D18*
G04 #@! TO.C,SW1*
X174111250Y-125593700D03*
X174111250Y-117186300D03*
X178607050Y-125593700D03*
X178607050Y-117186300D03*
X176359150Y-117186300D03*
G04 #@! TD*
D12*
G04 #@! TO.C,R11*
X165758500Y-116078000D03*
X163933500Y-116078000D03*
G04 #@! TD*
D13*
G04 #@! TO.C,R5*
X173435000Y-114808000D03*
X175260000Y-114808000D03*
G04 #@! TD*
G04 #@! TO.C,R3*
X145237500Y-125060000D03*
X147062500Y-125060000D03*
G04 #@! TD*
D11*
G04 #@! TO.C,R10*
X159258000Y-114403500D03*
X159258000Y-116228500D03*
G04 #@! TD*
D19*
G04 #@! TO.C,U3*
X169037000Y-119195850D03*
X167767000Y-119195850D03*
X166497000Y-119195850D03*
X165227000Y-119195850D03*
X165227000Y-124644150D03*
X166497000Y-124644150D03*
X167767000Y-124644150D03*
X169037000Y-124644150D03*
G04 #@! TD*
D13*
G04 #@! TO.C,R1*
X145217500Y-120530000D03*
X147042500Y-120530000D03*
G04 #@! TD*
D20*
G04 #@! TO.C,LED1*
X171135000Y-120384999D03*
X171135000Y-122185001D03*
X172085000Y-122185001D03*
X172085000Y-120384999D03*
G04 #@! TD*
D21*
G04 #@! TO.C,C2*
X168047500Y-117094000D03*
X169772500Y-117094000D03*
G04 #@! TD*
D22*
G04 #@! TO.C,U1*
X160909000Y-119445000D03*
X159639000Y-119445000D03*
X158369000Y-119445000D03*
X157099000Y-119445000D03*
X157099000Y-124395000D03*
X158369000Y-124395000D03*
X159639000Y-124395000D03*
X160909000Y-124395000D03*
G04 #@! TD*
D11*
G04 #@! TO.C,R12*
X186436000Y-120499500D03*
X186436000Y-122324500D03*
G04 #@! TD*
M02*
