M48
; DRILL file {KiCad 9.0.4-9.0.4-0~ubuntu24.04.1} date 2026-02-16T20:27:25+0900
; FORMAT={-:-/ absolute / metric / decimal}
; #@! TF.CreationDate,2026-02-16T20:27:25+09:00
; #@! TF.GenerationSoftware,Kicad,Pcbnew,9.0.4-9.0.4-0~ubuntu24.04.1
; #@! TF.FileFunction,MixedPlating,1,2
FMAT,2
METRIC
; #@! TA.AperFunction,Plated,PTH,ViaDrill
T1C0.300
; #@! TA.AperFunction,Plated,PTH,ViaDrill
T2C0.400
; #@! TA.AperFunction,Plated,PTH,ComponentDrill
T3C0.500
; #@! TA.AperFunction,Plated,PTH,ComponentDrill
T4C0.610
; #@! TA.AperFunction,Plated,PTH,ComponentDrill
T5C1.000
%
G90
G05
T1
X134.417Y-127.94
X134.645Y-114.935
X137.414Y-127.838
X137.846Y-115.037
X140.411Y-127.914
X141.326Y-115.011
X142.392Y-126.568
X143.027Y-116.484
X143.51Y-121.158
X143.764Y-122.174
X144.628Y-127.914
X144.907Y-118.262
X147.701Y-127.838
X148.641Y-120.091
X151.13Y-118.11
X151.714Y-127.965
X153.416Y-118.364
X154.178Y-117.856
X154.186Y-120.811
X154.735Y-121.46
X154.94Y-115.57
X155.306Y-119.522
X156.21Y-120.65
X158.242Y-116.84
X160.274Y-121.412
X160.553Y-117.526
X160.8Y-122.9
X161.8Y-125.0
X162.0Y-123.0
X162.077Y-119.863
X163.1Y-123.4
X163.3Y-124.6
X163.7Y-122.1
X163.703Y-118.847
X163.906Y-125.247
X166.037Y-118.189
X166.04Y-121.107
X166.04Y-121.945
X166.04Y-122.707
X166.878Y-116.332
X167.132Y-121.133
X167.132Y-121.92
X167.132Y-122.682
X168.173Y-121.133
X168.173Y-121.92
X168.173Y-122.707
X171.166Y-119.018
X172.212Y-118.76
X172.346Y-127.036
X173.482Y-116.078
X174.777Y-120.142
X176.06Y-121.39
X176.098Y-123.571
X176.53Y-114.808
X176.947Y-128.526
X176.962Y-119.583
X177.368Y-122.58
X179.846Y-128.4
X180.2Y-117.1
X180.7Y-119.3
X180.7Y-124.2
X181.6Y-117.9
X182.016Y-114.351
X182.702Y-115.062
X182.753Y-120.294
X183.4Y-128.4
X183.617Y-125.705
X185.82Y-116.992
X186.665Y-114.96
X186.995Y-118.44
T2
X140.081Y-120.269
X140.462Y-122.682
T3
X184.07Y-115.06
X184.07Y-116.31
X184.07Y-117.56
T5
X145.283Y-115.062
X147.823Y-115.062
X160.782Y-127.508
X163.322Y-127.508
X165.862Y-127.508
T4
G00X133.708Y-117.092
M15
G01X134.292Y-117.092
M16
G05
G00X133.708Y-125.732
M15
G01X134.292Y-125.732
M16
G05
G00X137.508Y-117.092
M15
G01X138.092Y-117.092
M16
G05
G00X137.508Y-125.732
M15
G01X138.092Y-125.732
M16
G05
M30
