G04 #@! TF.GenerationSoftware,KiCad,Pcbnew,9.0.4-9.0.4-0~ubuntu24.04.1*
G04 #@! TF.CreationDate,2026-02-16T20:27:28+09:00*
G04 #@! TF.ProjectId,Cygolite-Clone,4379676f-6c69-4746-952d-436c6f6e652e,rev?*
G04 #@! TF.SameCoordinates,Original*
G04 #@! TF.FileFunction,Legend,Top*
G04 #@! TF.FilePolarity,Positive*
%FSLAX46Y46*%
G04 Gerber Fmt 4.6, Leading zero omitted, Abs format (unit mm)*
G04 Created by KiCad (PCBNEW 9.0.4-9.0.4-0~ubuntu24.04.1) date 2026-02-16 20:27:28*
%MOMM*%
%LPD*%
G01*
G04 APERTURE LIST*
%ADD10C,0.154000*%
%ADD11C,0.150000*%
%ADD12C,0.127000*%
%ADD13C,0.120000*%
%ADD14C,0.152400*%
%ADD15C,0.125400*%
G04 APERTURE END LIST*
D10*
X182315600Y-124869611D02*
X181839410Y-124869611D01*
X181839410Y-124869611D02*
X181839410Y-123869611D01*
X182648934Y-124869611D02*
X182648934Y-123869611D01*
X182648934Y-123869611D02*
X182887029Y-123869611D01*
X182887029Y-123869611D02*
X183029886Y-123917230D01*
X183029886Y-123917230D02*
X183125124Y-124012468D01*
X183125124Y-124012468D02*
X183172743Y-124107706D01*
X183172743Y-124107706D02*
X183220362Y-124298182D01*
X183220362Y-124298182D02*
X183220362Y-124441039D01*
X183220362Y-124441039D02*
X183172743Y-124631515D01*
X183172743Y-124631515D02*
X183125124Y-124726753D01*
X183125124Y-124726753D02*
X183029886Y-124821992D01*
X183029886Y-124821992D02*
X182887029Y-124869611D01*
X182887029Y-124869611D02*
X182648934Y-124869611D01*
X183648934Y-124488658D02*
X184410839Y-124488658D01*
X184029886Y-124869611D02*
X184029886Y-124107706D01*
X135588000Y-118351211D02*
X135111810Y-118351211D01*
X135111810Y-118351211D02*
X135064191Y-118827401D01*
X135064191Y-118827401D02*
X135111810Y-118779782D01*
X135111810Y-118779782D02*
X135207048Y-118732163D01*
X135207048Y-118732163D02*
X135445143Y-118732163D01*
X135445143Y-118732163D02*
X135540381Y-118779782D01*
X135540381Y-118779782D02*
X135588000Y-118827401D01*
X135588000Y-118827401D02*
X135635619Y-118922639D01*
X135635619Y-118922639D02*
X135635619Y-119160734D01*
X135635619Y-119160734D02*
X135588000Y-119255972D01*
X135588000Y-119255972D02*
X135540381Y-119303592D01*
X135540381Y-119303592D02*
X135445143Y-119351211D01*
X135445143Y-119351211D02*
X135207048Y-119351211D01*
X135207048Y-119351211D02*
X135111810Y-119303592D01*
X135111810Y-119303592D02*
X135064191Y-119255972D01*
X135921334Y-118351211D02*
X136254667Y-119351211D01*
X136254667Y-119351211D02*
X136588000Y-118351211D01*
X182415600Y-127669611D02*
X181939410Y-127669611D01*
X181939410Y-127669611D02*
X181939410Y-126669611D01*
X182748934Y-127669611D02*
X182748934Y-126669611D01*
X182748934Y-126669611D02*
X182987029Y-126669611D01*
X182987029Y-126669611D02*
X183129886Y-126717230D01*
X183129886Y-126717230D02*
X183225124Y-126812468D01*
X183225124Y-126812468D02*
X183272743Y-126907706D01*
X183272743Y-126907706D02*
X183320362Y-127098182D01*
X183320362Y-127098182D02*
X183320362Y-127241039D01*
X183320362Y-127241039D02*
X183272743Y-127431515D01*
X183272743Y-127431515D02*
X183225124Y-127526753D01*
X183225124Y-127526753D02*
X183129886Y-127621992D01*
X183129886Y-127621992D02*
X182987029Y-127669611D01*
X182987029Y-127669611D02*
X182748934Y-127669611D01*
X183748934Y-127288658D02*
X184510839Y-127288658D01*
X135127619Y-123478830D02*
X135032381Y-123431211D01*
X135032381Y-123431211D02*
X134889524Y-123431211D01*
X134889524Y-123431211D02*
X134746667Y-123478830D01*
X134746667Y-123478830D02*
X134651429Y-123574068D01*
X134651429Y-123574068D02*
X134603810Y-123669306D01*
X134603810Y-123669306D02*
X134556191Y-123859782D01*
X134556191Y-123859782D02*
X134556191Y-124002639D01*
X134556191Y-124002639D02*
X134603810Y-124193115D01*
X134603810Y-124193115D02*
X134651429Y-124288353D01*
X134651429Y-124288353D02*
X134746667Y-124383592D01*
X134746667Y-124383592D02*
X134889524Y-124431211D01*
X134889524Y-124431211D02*
X134984762Y-124431211D01*
X134984762Y-124431211D02*
X135127619Y-124383592D01*
X135127619Y-124383592D02*
X135175238Y-124335972D01*
X135175238Y-124335972D02*
X135175238Y-124002639D01*
X135175238Y-124002639D02*
X134984762Y-124002639D01*
X135603810Y-124431211D02*
X135603810Y-123431211D01*
X135603810Y-123431211D02*
X136175238Y-124431211D01*
X136175238Y-124431211D02*
X136175238Y-123431211D01*
X136651429Y-124431211D02*
X136651429Y-123431211D01*
X136651429Y-123431211D02*
X136889524Y-123431211D01*
X136889524Y-123431211D02*
X137032381Y-123478830D01*
X137032381Y-123478830D02*
X137127619Y-123574068D01*
X137127619Y-123574068D02*
X137175238Y-123669306D01*
X137175238Y-123669306D02*
X137222857Y-123859782D01*
X137222857Y-123859782D02*
X137222857Y-124002639D01*
X137222857Y-124002639D02*
X137175238Y-124193115D01*
X137175238Y-124193115D02*
X137127619Y-124288353D01*
X137127619Y-124288353D02*
X137032381Y-124383592D01*
X137032381Y-124383592D02*
X136889524Y-124431211D01*
X136889524Y-124431211D02*
X136651429Y-124431211D01*
X181217230Y-122486780D02*
X181169611Y-122582018D01*
X181169611Y-122582018D02*
X181169611Y-122724875D01*
X181169611Y-122724875D02*
X181217230Y-122867732D01*
X181217230Y-122867732D02*
X181312468Y-122962970D01*
X181312468Y-122962970D02*
X181407706Y-123010589D01*
X181407706Y-123010589D02*
X181598182Y-123058208D01*
X181598182Y-123058208D02*
X181741039Y-123058208D01*
X181741039Y-123058208D02*
X181931515Y-123010589D01*
X181931515Y-123010589D02*
X182026753Y-122962970D01*
X182026753Y-122962970D02*
X182121992Y-122867732D01*
X182121992Y-122867732D02*
X182169611Y-122724875D01*
X182169611Y-122724875D02*
X182169611Y-122629637D01*
X182169611Y-122629637D02*
X182121992Y-122486780D01*
X182121992Y-122486780D02*
X182074372Y-122439161D01*
X182074372Y-122439161D02*
X181741039Y-122439161D01*
X181741039Y-122439161D02*
X181741039Y-122629637D01*
X182169611Y-122010589D02*
X181169611Y-122010589D01*
X181169611Y-122010589D02*
X182169611Y-121439161D01*
X182169611Y-121439161D02*
X181169611Y-121439161D01*
X182169611Y-120962970D02*
X181169611Y-120962970D01*
X181169611Y-120962970D02*
X181169611Y-120724875D01*
X181169611Y-120724875D02*
X181217230Y-120582018D01*
X181217230Y-120582018D02*
X181312468Y-120486780D01*
X181312468Y-120486780D02*
X181407706Y-120439161D01*
X181407706Y-120439161D02*
X181598182Y-120391542D01*
X181598182Y-120391542D02*
X181741039Y-120391542D01*
X181741039Y-120391542D02*
X181931515Y-120439161D01*
X181931515Y-120439161D02*
X182026753Y-120486780D01*
X182026753Y-120486780D02*
X182121992Y-120582018D01*
X182121992Y-120582018D02*
X182169611Y-120724875D01*
X182169611Y-120724875D02*
X182169611Y-120962970D01*
D11*
X181124819Y-116793333D02*
X181839104Y-116793333D01*
X181839104Y-116793333D02*
X181981961Y-116840952D01*
X181981961Y-116840952D02*
X182077200Y-116936190D01*
X182077200Y-116936190D02*
X182124819Y-117079047D01*
X182124819Y-117079047D02*
X182124819Y-117174285D01*
X181220057Y-116364761D02*
X181172438Y-116317142D01*
X181172438Y-116317142D02*
X181124819Y-116221904D01*
X181124819Y-116221904D02*
X181124819Y-115983809D01*
X181124819Y-115983809D02*
X181172438Y-115888571D01*
X181172438Y-115888571D02*
X181220057Y-115840952D01*
X181220057Y-115840952D02*
X181315295Y-115793333D01*
X181315295Y-115793333D02*
X181410533Y-115793333D01*
X181410533Y-115793333D02*
X181553390Y-115840952D01*
X181553390Y-115840952D02*
X182124819Y-116412380D01*
X182124819Y-116412380D02*
X182124819Y-115793333D01*
X151076819Y-127928666D02*
X150600628Y-128261999D01*
X151076819Y-128500094D02*
X150076819Y-128500094D01*
X150076819Y-128500094D02*
X150076819Y-128119142D01*
X150076819Y-128119142D02*
X150124438Y-128023904D01*
X150124438Y-128023904D02*
X150172057Y-127976285D01*
X150172057Y-127976285D02*
X150267295Y-127928666D01*
X150267295Y-127928666D02*
X150410152Y-127928666D01*
X150410152Y-127928666D02*
X150505390Y-127976285D01*
X150505390Y-127976285D02*
X150553009Y-128023904D01*
X150553009Y-128023904D02*
X150600628Y-128119142D01*
X150600628Y-128119142D02*
X150600628Y-128500094D01*
X150410152Y-127071523D02*
X151076819Y-127071523D01*
X150029200Y-127309618D02*
X150743485Y-127547713D01*
X150743485Y-127547713D02*
X150743485Y-126928666D01*
X153757333Y-118564819D02*
X153424000Y-118088628D01*
X153185905Y-118564819D02*
X153185905Y-117564819D01*
X153185905Y-117564819D02*
X153566857Y-117564819D01*
X153566857Y-117564819D02*
X153662095Y-117612438D01*
X153662095Y-117612438D02*
X153709714Y-117660057D01*
X153709714Y-117660057D02*
X153757333Y-117755295D01*
X153757333Y-117755295D02*
X153757333Y-117898152D01*
X153757333Y-117898152D02*
X153709714Y-117993390D01*
X153709714Y-117993390D02*
X153662095Y-118041009D01*
X153662095Y-118041009D02*
X153566857Y-118088628D01*
X153566857Y-118088628D02*
X153185905Y-118088628D01*
X154328762Y-117993390D02*
X154233524Y-117945771D01*
X154233524Y-117945771D02*
X154185905Y-117898152D01*
X154185905Y-117898152D02*
X154138286Y-117802914D01*
X154138286Y-117802914D02*
X154138286Y-117755295D01*
X154138286Y-117755295D02*
X154185905Y-117660057D01*
X154185905Y-117660057D02*
X154233524Y-117612438D01*
X154233524Y-117612438D02*
X154328762Y-117564819D01*
X154328762Y-117564819D02*
X154519238Y-117564819D01*
X154519238Y-117564819D02*
X154614476Y-117612438D01*
X154614476Y-117612438D02*
X154662095Y-117660057D01*
X154662095Y-117660057D02*
X154709714Y-117755295D01*
X154709714Y-117755295D02*
X154709714Y-117802914D01*
X154709714Y-117802914D02*
X154662095Y-117898152D01*
X154662095Y-117898152D02*
X154614476Y-117945771D01*
X154614476Y-117945771D02*
X154519238Y-117993390D01*
X154519238Y-117993390D02*
X154328762Y-117993390D01*
X154328762Y-117993390D02*
X154233524Y-118041009D01*
X154233524Y-118041009D02*
X154185905Y-118088628D01*
X154185905Y-118088628D02*
X154138286Y-118183866D01*
X154138286Y-118183866D02*
X154138286Y-118374342D01*
X154138286Y-118374342D02*
X154185905Y-118469580D01*
X154185905Y-118469580D02*
X154233524Y-118517200D01*
X154233524Y-118517200D02*
X154328762Y-118564819D01*
X154328762Y-118564819D02*
X154519238Y-118564819D01*
X154519238Y-118564819D02*
X154614476Y-118517200D01*
X154614476Y-118517200D02*
X154662095Y-118469580D01*
X154662095Y-118469580D02*
X154709714Y-118374342D01*
X154709714Y-118374342D02*
X154709714Y-118183866D01*
X154709714Y-118183866D02*
X154662095Y-118088628D01*
X154662095Y-118088628D02*
X154614476Y-118041009D01*
X154614476Y-118041009D02*
X154519238Y-117993390D01*
X145121333Y-119580819D02*
X144788000Y-119104628D01*
X144549905Y-119580819D02*
X144549905Y-118580819D01*
X144549905Y-118580819D02*
X144930857Y-118580819D01*
X144930857Y-118580819D02*
X145026095Y-118628438D01*
X145026095Y-118628438D02*
X145073714Y-118676057D01*
X145073714Y-118676057D02*
X145121333Y-118771295D01*
X145121333Y-118771295D02*
X145121333Y-118914152D01*
X145121333Y-118914152D02*
X145073714Y-119009390D01*
X145073714Y-119009390D02*
X145026095Y-119057009D01*
X145026095Y-119057009D02*
X144930857Y-119104628D01*
X144930857Y-119104628D02*
X144549905Y-119104628D01*
X145502286Y-118676057D02*
X145549905Y-118628438D01*
X145549905Y-118628438D02*
X145645143Y-118580819D01*
X145645143Y-118580819D02*
X145883238Y-118580819D01*
X145883238Y-118580819D02*
X145978476Y-118628438D01*
X145978476Y-118628438D02*
X146026095Y-118676057D01*
X146026095Y-118676057D02*
X146073714Y-118771295D01*
X146073714Y-118771295D02*
X146073714Y-118866533D01*
X146073714Y-118866533D02*
X146026095Y-119009390D01*
X146026095Y-119009390D02*
X145454667Y-119580819D01*
X145454667Y-119580819D02*
X146073714Y-119580819D01*
X151130095Y-118326819D02*
X151130095Y-119136342D01*
X151130095Y-119136342D02*
X151177714Y-119231580D01*
X151177714Y-119231580D02*
X151225333Y-119279200D01*
X151225333Y-119279200D02*
X151320571Y-119326819D01*
X151320571Y-119326819D02*
X151511047Y-119326819D01*
X151511047Y-119326819D02*
X151606285Y-119279200D01*
X151606285Y-119279200D02*
X151653904Y-119231580D01*
X151653904Y-119231580D02*
X151701523Y-119136342D01*
X151701523Y-119136342D02*
X151701523Y-118326819D01*
X152130095Y-118422057D02*
X152177714Y-118374438D01*
X152177714Y-118374438D02*
X152272952Y-118326819D01*
X152272952Y-118326819D02*
X152511047Y-118326819D01*
X152511047Y-118326819D02*
X152606285Y-118374438D01*
X152606285Y-118374438D02*
X152653904Y-118422057D01*
X152653904Y-118422057D02*
X152701523Y-118517295D01*
X152701523Y-118517295D02*
X152701523Y-118612533D01*
X152701523Y-118612533D02*
X152653904Y-118755390D01*
X152653904Y-118755390D02*
X152082476Y-119326819D01*
X152082476Y-119326819D02*
X152701523Y-119326819D01*
X147582095Y-117056819D02*
X148153523Y-117056819D01*
X147867809Y-118056819D02*
X147867809Y-117056819D01*
X148486857Y-118056819D02*
X148486857Y-117056819D01*
X148486857Y-117056819D02*
X148867809Y-117056819D01*
X148867809Y-117056819D02*
X148963047Y-117104438D01*
X148963047Y-117104438D02*
X149010666Y-117152057D01*
X149010666Y-117152057D02*
X149058285Y-117247295D01*
X149058285Y-117247295D02*
X149058285Y-117390152D01*
X149058285Y-117390152D02*
X149010666Y-117485390D01*
X149010666Y-117485390D02*
X148963047Y-117533009D01*
X148963047Y-117533009D02*
X148867809Y-117580628D01*
X148867809Y-117580628D02*
X148486857Y-117580628D01*
X149915428Y-117390152D02*
X149915428Y-118056819D01*
X149677333Y-117009200D02*
X149439238Y-117723485D01*
X149439238Y-117723485D02*
X150058285Y-117723485D01*
X142357819Y-114633333D02*
X143072104Y-114633333D01*
X143072104Y-114633333D02*
X143214961Y-114680952D01*
X143214961Y-114680952D02*
X143310200Y-114776190D01*
X143310200Y-114776190D02*
X143357819Y-114919047D01*
X143357819Y-114919047D02*
X143357819Y-115014285D01*
X142691152Y-113728571D02*
X143357819Y-113728571D01*
X142310200Y-113966666D02*
X143024485Y-114204761D01*
X143024485Y-114204761D02*
X143024485Y-113585714D01*
X172946219Y-125414066D02*
X172470028Y-125747399D01*
X172946219Y-125985494D02*
X171946219Y-125985494D01*
X171946219Y-125985494D02*
X171946219Y-125604542D01*
X171946219Y-125604542D02*
X171993838Y-125509304D01*
X171993838Y-125509304D02*
X172041457Y-125461685D01*
X172041457Y-125461685D02*
X172136695Y-125414066D01*
X172136695Y-125414066D02*
X172279552Y-125414066D01*
X172279552Y-125414066D02*
X172374790Y-125461685D01*
X172374790Y-125461685D02*
X172422409Y-125509304D01*
X172422409Y-125509304D02*
X172470028Y-125604542D01*
X172470028Y-125604542D02*
X172470028Y-125985494D01*
X171946219Y-124556923D02*
X171946219Y-124747399D01*
X171946219Y-124747399D02*
X171993838Y-124842637D01*
X171993838Y-124842637D02*
X172041457Y-124890256D01*
X172041457Y-124890256D02*
X172184314Y-124985494D01*
X172184314Y-124985494D02*
X172374790Y-125033113D01*
X172374790Y-125033113D02*
X172755742Y-125033113D01*
X172755742Y-125033113D02*
X172850980Y-124985494D01*
X172850980Y-124985494D02*
X172898600Y-124937875D01*
X172898600Y-124937875D02*
X172946219Y-124842637D01*
X172946219Y-124842637D02*
X172946219Y-124652161D01*
X172946219Y-124652161D02*
X172898600Y-124556923D01*
X172898600Y-124556923D02*
X172850980Y-124509304D01*
X172850980Y-124509304D02*
X172755742Y-124461685D01*
X172755742Y-124461685D02*
X172517647Y-124461685D01*
X172517647Y-124461685D02*
X172422409Y-124509304D01*
X172422409Y-124509304D02*
X172374790Y-124556923D01*
X172374790Y-124556923D02*
X172327171Y-124652161D01*
X172327171Y-124652161D02*
X172327171Y-124842637D01*
X172327171Y-124842637D02*
X172374790Y-124937875D01*
X172374790Y-124937875D02*
X172422409Y-124985494D01*
X172422409Y-124985494D02*
X172517647Y-125033113D01*
X158484219Y-126901533D02*
X159198504Y-126901533D01*
X159198504Y-126901533D02*
X159341361Y-126949152D01*
X159341361Y-126949152D02*
X159436600Y-127044390D01*
X159436600Y-127044390D02*
X159484219Y-127187247D01*
X159484219Y-127187247D02*
X159484219Y-127282485D01*
X158484219Y-126520580D02*
X158484219Y-125901533D01*
X158484219Y-125901533D02*
X158865171Y-126234866D01*
X158865171Y-126234866D02*
X158865171Y-126092009D01*
X158865171Y-126092009D02*
X158912790Y-125996771D01*
X158912790Y-125996771D02*
X158960409Y-125949152D01*
X158960409Y-125949152D02*
X159055647Y-125901533D01*
X159055647Y-125901533D02*
X159293742Y-125901533D01*
X159293742Y-125901533D02*
X159388980Y-125949152D01*
X159388980Y-125949152D02*
X159436600Y-125996771D01*
X159436600Y-125996771D02*
X159484219Y-126092009D01*
X159484219Y-126092009D02*
X159484219Y-126377723D01*
X159484219Y-126377723D02*
X159436600Y-126472961D01*
X159436600Y-126472961D02*
X159388980Y-126520580D01*
X141581905Y-117514819D02*
X141581905Y-116514819D01*
X141581905Y-116514819D02*
X141820000Y-116514819D01*
X141820000Y-116514819D02*
X141962857Y-116562438D01*
X141962857Y-116562438D02*
X142058095Y-116657676D01*
X142058095Y-116657676D02*
X142105714Y-116752914D01*
X142105714Y-116752914D02*
X142153333Y-116943390D01*
X142153333Y-116943390D02*
X142153333Y-117086247D01*
X142153333Y-117086247D02*
X142105714Y-117276723D01*
X142105714Y-117276723D02*
X142058095Y-117371961D01*
X142058095Y-117371961D02*
X141962857Y-117467200D01*
X141962857Y-117467200D02*
X141820000Y-117514819D01*
X141820000Y-117514819D02*
X141581905Y-117514819D01*
X143105714Y-117514819D02*
X142534286Y-117514819D01*
X142820000Y-117514819D02*
X142820000Y-116514819D01*
X142820000Y-116514819D02*
X142724762Y-116657676D01*
X142724762Y-116657676D02*
X142629524Y-116752914D01*
X142629524Y-116752914D02*
X142534286Y-116800533D01*
X154378819Y-126913390D02*
X153902628Y-127246723D01*
X154378819Y-127484818D02*
X153378819Y-127484818D01*
X153378819Y-127484818D02*
X153378819Y-127103866D01*
X153378819Y-127103866D02*
X153426438Y-127008628D01*
X153426438Y-127008628D02*
X153474057Y-126961009D01*
X153474057Y-126961009D02*
X153569295Y-126913390D01*
X153569295Y-126913390D02*
X153712152Y-126913390D01*
X153712152Y-126913390D02*
X153807390Y-126961009D01*
X153807390Y-126961009D02*
X153855009Y-127008628D01*
X153855009Y-127008628D02*
X153902628Y-127103866D01*
X153902628Y-127103866D02*
X153902628Y-127484818D01*
X153378819Y-126580056D02*
X153378819Y-125913390D01*
X153378819Y-125913390D02*
X154378819Y-126341961D01*
X158188819Y-115482666D02*
X157712628Y-115815999D01*
X158188819Y-116054094D02*
X157188819Y-116054094D01*
X157188819Y-116054094D02*
X157188819Y-115673142D01*
X157188819Y-115673142D02*
X157236438Y-115577904D01*
X157236438Y-115577904D02*
X157284057Y-115530285D01*
X157284057Y-115530285D02*
X157379295Y-115482666D01*
X157379295Y-115482666D02*
X157522152Y-115482666D01*
X157522152Y-115482666D02*
X157617390Y-115530285D01*
X157617390Y-115530285D02*
X157665009Y-115577904D01*
X157665009Y-115577904D02*
X157712628Y-115673142D01*
X157712628Y-115673142D02*
X157712628Y-116054094D01*
X158188819Y-115006475D02*
X158188819Y-114815999D01*
X158188819Y-114815999D02*
X158141200Y-114720761D01*
X158141200Y-114720761D02*
X158093580Y-114673142D01*
X158093580Y-114673142D02*
X157950723Y-114577904D01*
X157950723Y-114577904D02*
X157760247Y-114530285D01*
X157760247Y-114530285D02*
X157379295Y-114530285D01*
X157379295Y-114530285D02*
X157284057Y-114577904D01*
X157284057Y-114577904D02*
X157236438Y-114625523D01*
X157236438Y-114625523D02*
X157188819Y-114720761D01*
X157188819Y-114720761D02*
X157188819Y-114911237D01*
X157188819Y-114911237D02*
X157236438Y-115006475D01*
X157236438Y-115006475D02*
X157284057Y-115054094D01*
X157284057Y-115054094D02*
X157379295Y-115101713D01*
X157379295Y-115101713D02*
X157617390Y-115101713D01*
X157617390Y-115101713D02*
X157712628Y-115054094D01*
X157712628Y-115054094D02*
X157760247Y-115006475D01*
X157760247Y-115006475D02*
X157807866Y-114911237D01*
X157807866Y-114911237D02*
X157807866Y-114720761D01*
X157807866Y-114720761D02*
X157760247Y-114625523D01*
X157760247Y-114625523D02*
X157712628Y-114577904D01*
X157712628Y-114577904D02*
X157617390Y-114530285D01*
X149457580Y-127928666D02*
X149505200Y-127976285D01*
X149505200Y-127976285D02*
X149552819Y-128119142D01*
X149552819Y-128119142D02*
X149552819Y-128214380D01*
X149552819Y-128214380D02*
X149505200Y-128357237D01*
X149505200Y-128357237D02*
X149409961Y-128452475D01*
X149409961Y-128452475D02*
X149314723Y-128500094D01*
X149314723Y-128500094D02*
X149124247Y-128547713D01*
X149124247Y-128547713D02*
X148981390Y-128547713D01*
X148981390Y-128547713D02*
X148790914Y-128500094D01*
X148790914Y-128500094D02*
X148695676Y-128452475D01*
X148695676Y-128452475D02*
X148600438Y-128357237D01*
X148600438Y-128357237D02*
X148552819Y-128214380D01*
X148552819Y-128214380D02*
X148552819Y-128119142D01*
X148552819Y-128119142D02*
X148600438Y-127976285D01*
X148600438Y-127976285D02*
X148648057Y-127928666D01*
X149552819Y-126976285D02*
X149552819Y-127547713D01*
X149552819Y-127261999D02*
X148552819Y-127261999D01*
X148552819Y-127261999D02*
X148695676Y-127357237D01*
X148695676Y-127357237D02*
X148790914Y-127452475D01*
X148790914Y-127452475D02*
X148838533Y-127547713D01*
X176467200Y-122723332D02*
X176514819Y-122580475D01*
X176514819Y-122580475D02*
X176514819Y-122342380D01*
X176514819Y-122342380D02*
X176467200Y-122247142D01*
X176467200Y-122247142D02*
X176419580Y-122199523D01*
X176419580Y-122199523D02*
X176324342Y-122151904D01*
X176324342Y-122151904D02*
X176229104Y-122151904D01*
X176229104Y-122151904D02*
X176133866Y-122199523D01*
X176133866Y-122199523D02*
X176086247Y-122247142D01*
X176086247Y-122247142D02*
X176038628Y-122342380D01*
X176038628Y-122342380D02*
X175991009Y-122532856D01*
X175991009Y-122532856D02*
X175943390Y-122628094D01*
X175943390Y-122628094D02*
X175895771Y-122675713D01*
X175895771Y-122675713D02*
X175800533Y-122723332D01*
X175800533Y-122723332D02*
X175705295Y-122723332D01*
X175705295Y-122723332D02*
X175610057Y-122675713D01*
X175610057Y-122675713D02*
X175562438Y-122628094D01*
X175562438Y-122628094D02*
X175514819Y-122532856D01*
X175514819Y-122532856D02*
X175514819Y-122294761D01*
X175514819Y-122294761D02*
X175562438Y-122151904D01*
X175514819Y-121818570D02*
X176514819Y-121580475D01*
X176514819Y-121580475D02*
X175800533Y-121389999D01*
X175800533Y-121389999D02*
X176514819Y-121199523D01*
X176514819Y-121199523D02*
X175514819Y-120961428D01*
X176514819Y-120056666D02*
X176514819Y-120628094D01*
X176514819Y-120342380D02*
X175514819Y-120342380D01*
X175514819Y-120342380D02*
X175657676Y-120437618D01*
X175657676Y-120437618D02*
X175752914Y-120532856D01*
X175752914Y-120532856D02*
X175800533Y-120628094D01*
X164203142Y-115008819D02*
X163869809Y-114532628D01*
X163631714Y-115008819D02*
X163631714Y-114008819D01*
X163631714Y-114008819D02*
X164012666Y-114008819D01*
X164012666Y-114008819D02*
X164107904Y-114056438D01*
X164107904Y-114056438D02*
X164155523Y-114104057D01*
X164155523Y-114104057D02*
X164203142Y-114199295D01*
X164203142Y-114199295D02*
X164203142Y-114342152D01*
X164203142Y-114342152D02*
X164155523Y-114437390D01*
X164155523Y-114437390D02*
X164107904Y-114485009D01*
X164107904Y-114485009D02*
X164012666Y-114532628D01*
X164012666Y-114532628D02*
X163631714Y-114532628D01*
X165155523Y-115008819D02*
X164584095Y-115008819D01*
X164869809Y-115008819D02*
X164869809Y-114008819D01*
X164869809Y-114008819D02*
X164774571Y-114151676D01*
X164774571Y-114151676D02*
X164679333Y-114246914D01*
X164679333Y-114246914D02*
X164584095Y-114294533D01*
X166107904Y-115008819D02*
X165536476Y-115008819D01*
X165822190Y-115008819D02*
X165822190Y-114008819D01*
X165822190Y-114008819D02*
X165726952Y-114151676D01*
X165726952Y-114151676D02*
X165631714Y-114246914D01*
X165631714Y-114246914D02*
X165536476Y-114294533D01*
X176974833Y-115262819D02*
X176641500Y-114786628D01*
X176403405Y-115262819D02*
X176403405Y-114262819D01*
X176403405Y-114262819D02*
X176784357Y-114262819D01*
X176784357Y-114262819D02*
X176879595Y-114310438D01*
X176879595Y-114310438D02*
X176927214Y-114358057D01*
X176927214Y-114358057D02*
X176974833Y-114453295D01*
X176974833Y-114453295D02*
X176974833Y-114596152D01*
X176974833Y-114596152D02*
X176927214Y-114691390D01*
X176927214Y-114691390D02*
X176879595Y-114739009D01*
X176879595Y-114739009D02*
X176784357Y-114786628D01*
X176784357Y-114786628D02*
X176403405Y-114786628D01*
X177879595Y-114262819D02*
X177403405Y-114262819D01*
X177403405Y-114262819D02*
X177355786Y-114739009D01*
X177355786Y-114739009D02*
X177403405Y-114691390D01*
X177403405Y-114691390D02*
X177498643Y-114643771D01*
X177498643Y-114643771D02*
X177736738Y-114643771D01*
X177736738Y-114643771D02*
X177831976Y-114691390D01*
X177831976Y-114691390D02*
X177879595Y-114739009D01*
X177879595Y-114739009D02*
X177927214Y-114834247D01*
X177927214Y-114834247D02*
X177927214Y-115072342D01*
X177927214Y-115072342D02*
X177879595Y-115167580D01*
X177879595Y-115167580D02*
X177831976Y-115215200D01*
X177831976Y-115215200D02*
X177736738Y-115262819D01*
X177736738Y-115262819D02*
X177498643Y-115262819D01*
X177498643Y-115262819D02*
X177403405Y-115215200D01*
X177403405Y-115215200D02*
X177355786Y-115167580D01*
X145883333Y-124152819D02*
X145550000Y-123676628D01*
X145311905Y-124152819D02*
X145311905Y-123152819D01*
X145311905Y-123152819D02*
X145692857Y-123152819D01*
X145692857Y-123152819D02*
X145788095Y-123200438D01*
X145788095Y-123200438D02*
X145835714Y-123248057D01*
X145835714Y-123248057D02*
X145883333Y-123343295D01*
X145883333Y-123343295D02*
X145883333Y-123486152D01*
X145883333Y-123486152D02*
X145835714Y-123581390D01*
X145835714Y-123581390D02*
X145788095Y-123629009D01*
X145788095Y-123629009D02*
X145692857Y-123676628D01*
X145692857Y-123676628D02*
X145311905Y-123676628D01*
X146216667Y-123152819D02*
X146835714Y-123152819D01*
X146835714Y-123152819D02*
X146502381Y-123533771D01*
X146502381Y-123533771D02*
X146645238Y-123533771D01*
X146645238Y-123533771D02*
X146740476Y-123581390D01*
X146740476Y-123581390D02*
X146788095Y-123629009D01*
X146788095Y-123629009D02*
X146835714Y-123724247D01*
X146835714Y-123724247D02*
X146835714Y-123962342D01*
X146835714Y-123962342D02*
X146788095Y-124057580D01*
X146788095Y-124057580D02*
X146740476Y-124105200D01*
X146740476Y-124105200D02*
X146645238Y-124152819D01*
X146645238Y-124152819D02*
X146359524Y-124152819D01*
X146359524Y-124152819D02*
X146264286Y-124105200D01*
X146264286Y-124105200D02*
X146216667Y-124057580D01*
X156614019Y-115730257D02*
X156137828Y-116063590D01*
X156614019Y-116301685D02*
X155614019Y-116301685D01*
X155614019Y-116301685D02*
X155614019Y-115920733D01*
X155614019Y-115920733D02*
X155661638Y-115825495D01*
X155661638Y-115825495D02*
X155709257Y-115777876D01*
X155709257Y-115777876D02*
X155804495Y-115730257D01*
X155804495Y-115730257D02*
X155947352Y-115730257D01*
X155947352Y-115730257D02*
X156042590Y-115777876D01*
X156042590Y-115777876D02*
X156090209Y-115825495D01*
X156090209Y-115825495D02*
X156137828Y-115920733D01*
X156137828Y-115920733D02*
X156137828Y-116301685D01*
X156614019Y-114777876D02*
X156614019Y-115349304D01*
X156614019Y-115063590D02*
X155614019Y-115063590D01*
X155614019Y-115063590D02*
X155756876Y-115158828D01*
X155756876Y-115158828D02*
X155852114Y-115254066D01*
X155852114Y-115254066D02*
X155899733Y-115349304D01*
X155614019Y-114158828D02*
X155614019Y-114063590D01*
X155614019Y-114063590D02*
X155661638Y-113968352D01*
X155661638Y-113968352D02*
X155709257Y-113920733D01*
X155709257Y-113920733D02*
X155804495Y-113873114D01*
X155804495Y-113873114D02*
X155994971Y-113825495D01*
X155994971Y-113825495D02*
X156233066Y-113825495D01*
X156233066Y-113825495D02*
X156423542Y-113873114D01*
X156423542Y-113873114D02*
X156518780Y-113920733D01*
X156518780Y-113920733D02*
X156566400Y-113968352D01*
X156566400Y-113968352D02*
X156614019Y-114063590D01*
X156614019Y-114063590D02*
X156614019Y-114158828D01*
X156614019Y-114158828D02*
X156566400Y-114254066D01*
X156566400Y-114254066D02*
X156518780Y-114301685D01*
X156518780Y-114301685D02*
X156423542Y-114349304D01*
X156423542Y-114349304D02*
X156233066Y-114396923D01*
X156233066Y-114396923D02*
X155994971Y-114396923D01*
X155994971Y-114396923D02*
X155804495Y-114349304D01*
X155804495Y-114349304D02*
X155709257Y-114301685D01*
X155709257Y-114301685D02*
X155661638Y-114254066D01*
X155661638Y-114254066D02*
X155614019Y-114158828D01*
X162560095Y-118072819D02*
X162560095Y-118882342D01*
X162560095Y-118882342D02*
X162607714Y-118977580D01*
X162607714Y-118977580D02*
X162655333Y-119025200D01*
X162655333Y-119025200D02*
X162750571Y-119072819D01*
X162750571Y-119072819D02*
X162941047Y-119072819D01*
X162941047Y-119072819D02*
X163036285Y-119025200D01*
X163036285Y-119025200D02*
X163083904Y-118977580D01*
X163083904Y-118977580D02*
X163131523Y-118882342D01*
X163131523Y-118882342D02*
X163131523Y-118072819D01*
X163512476Y-118072819D02*
X164131523Y-118072819D01*
X164131523Y-118072819D02*
X163798190Y-118453771D01*
X163798190Y-118453771D02*
X163941047Y-118453771D01*
X163941047Y-118453771D02*
X164036285Y-118501390D01*
X164036285Y-118501390D02*
X164083904Y-118549009D01*
X164083904Y-118549009D02*
X164131523Y-118644247D01*
X164131523Y-118644247D02*
X164131523Y-118882342D01*
X164131523Y-118882342D02*
X164083904Y-118977580D01*
X164083904Y-118977580D02*
X164036285Y-119025200D01*
X164036285Y-119025200D02*
X163941047Y-119072819D01*
X163941047Y-119072819D02*
X163655333Y-119072819D01*
X163655333Y-119072819D02*
X163560095Y-119025200D01*
X163560095Y-119025200D02*
X163512476Y-118977580D01*
X145121333Y-118310819D02*
X144788000Y-117834628D01*
X144549905Y-118310819D02*
X144549905Y-117310819D01*
X144549905Y-117310819D02*
X144930857Y-117310819D01*
X144930857Y-117310819D02*
X145026095Y-117358438D01*
X145026095Y-117358438D02*
X145073714Y-117406057D01*
X145073714Y-117406057D02*
X145121333Y-117501295D01*
X145121333Y-117501295D02*
X145121333Y-117644152D01*
X145121333Y-117644152D02*
X145073714Y-117739390D01*
X145073714Y-117739390D02*
X145026095Y-117787009D01*
X145026095Y-117787009D02*
X144930857Y-117834628D01*
X144930857Y-117834628D02*
X144549905Y-117834628D01*
X146073714Y-118310819D02*
X145502286Y-118310819D01*
X145788000Y-118310819D02*
X145788000Y-117310819D01*
X145788000Y-117310819D02*
X145692762Y-117453676D01*
X145692762Y-117453676D02*
X145597524Y-117548914D01*
X145597524Y-117548914D02*
X145502286Y-117596533D01*
X171904819Y-118721047D02*
X171904819Y-119197237D01*
X171904819Y-119197237D02*
X170904819Y-119197237D01*
X171381009Y-118387713D02*
X171381009Y-118054380D01*
X171904819Y-117911523D02*
X171904819Y-118387713D01*
X171904819Y-118387713D02*
X170904819Y-118387713D01*
X170904819Y-118387713D02*
X170904819Y-117911523D01*
X171904819Y-117482951D02*
X170904819Y-117482951D01*
X170904819Y-117482951D02*
X170904819Y-117244856D01*
X170904819Y-117244856D02*
X170952438Y-117101999D01*
X170952438Y-117101999D02*
X171047676Y-117006761D01*
X171047676Y-117006761D02*
X171142914Y-116959142D01*
X171142914Y-116959142D02*
X171333390Y-116911523D01*
X171333390Y-116911523D02*
X171476247Y-116911523D01*
X171476247Y-116911523D02*
X171666723Y-116959142D01*
X171666723Y-116959142D02*
X171761961Y-117006761D01*
X171761961Y-117006761D02*
X171857200Y-117101999D01*
X171857200Y-117101999D02*
X171904819Y-117244856D01*
X171904819Y-117244856D02*
X171904819Y-117482951D01*
X171904819Y-115959142D02*
X171904819Y-116530570D01*
X171904819Y-116244856D02*
X170904819Y-116244856D01*
X170904819Y-116244856D02*
X171047676Y-116340094D01*
X171047676Y-116340094D02*
X171142914Y-116435332D01*
X171142914Y-116435332D02*
X171190533Y-116530570D01*
X168997333Y-115675580D02*
X168949714Y-115723200D01*
X168949714Y-115723200D02*
X168806857Y-115770819D01*
X168806857Y-115770819D02*
X168711619Y-115770819D01*
X168711619Y-115770819D02*
X168568762Y-115723200D01*
X168568762Y-115723200D02*
X168473524Y-115627961D01*
X168473524Y-115627961D02*
X168425905Y-115532723D01*
X168425905Y-115532723D02*
X168378286Y-115342247D01*
X168378286Y-115342247D02*
X168378286Y-115199390D01*
X168378286Y-115199390D02*
X168425905Y-115008914D01*
X168425905Y-115008914D02*
X168473524Y-114913676D01*
X168473524Y-114913676D02*
X168568762Y-114818438D01*
X168568762Y-114818438D02*
X168711619Y-114770819D01*
X168711619Y-114770819D02*
X168806857Y-114770819D01*
X168806857Y-114770819D02*
X168949714Y-114818438D01*
X168949714Y-114818438D02*
X168997333Y-114866057D01*
X169378286Y-114866057D02*
X169425905Y-114818438D01*
X169425905Y-114818438D02*
X169521143Y-114770819D01*
X169521143Y-114770819D02*
X169759238Y-114770819D01*
X169759238Y-114770819D02*
X169854476Y-114818438D01*
X169854476Y-114818438D02*
X169902095Y-114866057D01*
X169902095Y-114866057D02*
X169949714Y-114961295D01*
X169949714Y-114961295D02*
X169949714Y-115056533D01*
X169949714Y-115056533D02*
X169902095Y-115199390D01*
X169902095Y-115199390D02*
X169330667Y-115770819D01*
X169330667Y-115770819D02*
X169949714Y-115770819D01*
X158250095Y-116548819D02*
X158821523Y-116548819D01*
X158535809Y-117548819D02*
X158535809Y-116548819D01*
X159154857Y-117548819D02*
X159154857Y-116548819D01*
X159154857Y-116548819D02*
X159535809Y-116548819D01*
X159535809Y-116548819D02*
X159631047Y-116596438D01*
X159631047Y-116596438D02*
X159678666Y-116644057D01*
X159678666Y-116644057D02*
X159726285Y-116739295D01*
X159726285Y-116739295D02*
X159726285Y-116882152D01*
X159726285Y-116882152D02*
X159678666Y-116977390D01*
X159678666Y-116977390D02*
X159631047Y-117025009D01*
X159631047Y-117025009D02*
X159535809Y-117072628D01*
X159535809Y-117072628D02*
X159154857Y-117072628D01*
X160678666Y-117548819D02*
X160107238Y-117548819D01*
X160392952Y-117548819D02*
X160392952Y-116548819D01*
X160392952Y-116548819D02*
X160297714Y-116691676D01*
X160297714Y-116691676D02*
X160202476Y-116786914D01*
X160202476Y-116786914D02*
X160107238Y-116834533D01*
X154863895Y-118606219D02*
X154863895Y-119415742D01*
X154863895Y-119415742D02*
X154911514Y-119510980D01*
X154911514Y-119510980D02*
X154959133Y-119558600D01*
X154959133Y-119558600D02*
X155054371Y-119606219D01*
X155054371Y-119606219D02*
X155244847Y-119606219D01*
X155244847Y-119606219D02*
X155340085Y-119558600D01*
X155340085Y-119558600D02*
X155387704Y-119510980D01*
X155387704Y-119510980D02*
X155435323Y-119415742D01*
X155435323Y-119415742D02*
X155435323Y-118606219D01*
X156435323Y-119606219D02*
X155863895Y-119606219D01*
X156149609Y-119606219D02*
X156149609Y-118606219D01*
X156149609Y-118606219D02*
X156054371Y-118749076D01*
X156054371Y-118749076D02*
X155959133Y-118844314D01*
X155959133Y-118844314D02*
X155863895Y-118891933D01*
X185366819Y-122308857D02*
X184890628Y-122642190D01*
X185366819Y-122880285D02*
X184366819Y-122880285D01*
X184366819Y-122880285D02*
X184366819Y-122499333D01*
X184366819Y-122499333D02*
X184414438Y-122404095D01*
X184414438Y-122404095D02*
X184462057Y-122356476D01*
X184462057Y-122356476D02*
X184557295Y-122308857D01*
X184557295Y-122308857D02*
X184700152Y-122308857D01*
X184700152Y-122308857D02*
X184795390Y-122356476D01*
X184795390Y-122356476D02*
X184843009Y-122404095D01*
X184843009Y-122404095D02*
X184890628Y-122499333D01*
X184890628Y-122499333D02*
X184890628Y-122880285D01*
X185366819Y-121356476D02*
X185366819Y-121927904D01*
X185366819Y-121642190D02*
X184366819Y-121642190D01*
X184366819Y-121642190D02*
X184509676Y-121737428D01*
X184509676Y-121737428D02*
X184604914Y-121832666D01*
X184604914Y-121832666D02*
X184652533Y-121927904D01*
X184462057Y-120975523D02*
X184414438Y-120927904D01*
X184414438Y-120927904D02*
X184366819Y-120832666D01*
X184366819Y-120832666D02*
X184366819Y-120594571D01*
X184366819Y-120594571D02*
X184414438Y-120499333D01*
X184414438Y-120499333D02*
X184462057Y-120451714D01*
X184462057Y-120451714D02*
X184557295Y-120404095D01*
X184557295Y-120404095D02*
X184652533Y-120404095D01*
X184652533Y-120404095D02*
X184795390Y-120451714D01*
X184795390Y-120451714D02*
X185366819Y-121023142D01*
X185366819Y-121023142D02*
X185366819Y-120404095D01*
D12*
G04 #@! TO.C,J2*
X183020000Y-113560000D02*
X188520000Y-113560000D01*
X183020000Y-119060000D02*
X183020000Y-113560000D01*
X183770000Y-119860000D02*
X184070000Y-119360000D01*
X184070000Y-119360000D02*
X184370000Y-119860000D01*
X184370000Y-119860000D02*
X183770000Y-119860000D01*
X188520000Y-113560000D02*
X188520000Y-119060000D01*
X188520000Y-119060000D02*
X183020000Y-119060000D01*
D13*
G04 #@! TO.C,R4*
X150099500Y-124967276D02*
X150099500Y-125476724D01*
X151144500Y-124967276D02*
X151144500Y-125476724D01*
G04 #@! TO.C,R8*
X154178724Y-116063500D02*
X153669276Y-116063500D01*
X154178724Y-117108500D02*
X153669276Y-117108500D01*
G04 #@! TO.C,R2*
X145875276Y-121737500D02*
X146384724Y-121737500D01*
X145875276Y-122782500D02*
X146384724Y-122782500D01*
G04 #@! TO.C,U2*
X150982000Y-119598000D02*
X152802000Y-119598000D01*
X150982000Y-119648000D02*
X150982000Y-119598000D01*
X150982000Y-121548000D02*
X150982000Y-120768000D01*
X150982000Y-122718000D02*
X150982000Y-122668000D01*
X152802000Y-119598000D02*
X152802000Y-119648000D01*
X152802000Y-122668000D02*
X152802000Y-122718000D01*
X152802000Y-122718000D02*
X150982000Y-122718000D01*
X153582000Y-122998000D02*
X153102000Y-122998000D01*
X153342000Y-122668000D01*
X153582000Y-122998000D01*
G36*
X153582000Y-122998000D02*
G01*
X153102000Y-122998000D01*
X153342000Y-122668000D01*
X153582000Y-122998000D01*
G37*
G04 #@! TO.C,TP4*
X151830000Y-116586000D02*
G75*
G02*
X150430000Y-116586000I-700000J0D01*
G01*
X150430000Y-116586000D02*
G75*
G02*
X151830000Y-116586000I700000J0D01*
G01*
G04 #@! TO.C,J4*
X143903000Y-116442000D02*
X143903000Y-115062000D01*
X145283000Y-116442000D02*
X143903000Y-116442000D01*
X146553000Y-113682000D02*
X149203000Y-113682000D01*
X146553000Y-116442000D02*
X146553000Y-113682000D01*
X146553000Y-116442000D02*
X149203000Y-116442000D01*
X149203000Y-116442000D02*
X149203000Y-113682000D01*
G04 #@! TO.C,R6*
X170800500Y-124941876D02*
X170800500Y-125451324D01*
X171845500Y-124941876D02*
X171845500Y-125451324D01*
G04 #@! TO.C,J3*
X159402000Y-128888000D02*
X159402000Y-127508000D01*
X160782000Y-128888000D02*
X159402000Y-128888000D01*
X162052000Y-126128000D02*
X167242000Y-126128000D01*
X162052000Y-128888000D02*
X162052000Y-126128000D01*
X162052000Y-128888000D02*
X167242000Y-128888000D01*
X167242000Y-128888000D02*
X167242000Y-126128000D01*
G04 #@! TO.C,D1*
X140570000Y-117862500D02*
X140570000Y-123372500D01*
X143870000Y-117862500D02*
X140570000Y-117862500D01*
X143870000Y-117862500D02*
X143870000Y-123372500D01*
G04 #@! TO.C,R7*
X154925500Y-126237276D02*
X154925500Y-126746724D01*
X155970500Y-126237276D02*
X155970500Y-126746724D01*
G04 #@! TO.C,R9*
X160513500Y-115570724D02*
X160513500Y-115061276D01*
X161558500Y-115570724D02*
X161558500Y-115061276D01*
G04 #@! TO.C,C1*
X148588000Y-125075733D02*
X148588000Y-125368267D01*
X149608000Y-125075733D02*
X149608000Y-125368267D01*
D14*
G04 #@! TO.C,SW1*
X173133350Y-118265800D02*
X173133350Y-124514200D01*
D15*
X173211250Y-125493700D02*
X173211250Y-126593700D01*
X173211250Y-126593700D02*
X174111250Y-126593700D01*
D14*
X174990447Y-124514200D02*
X175479953Y-124514200D01*
X175479953Y-118265800D02*
X174990447Y-118265800D01*
X177238347Y-124514200D02*
X177727853Y-124514200D01*
X177727853Y-118265800D02*
X177238347Y-118265800D01*
X179584950Y-124514200D02*
X179584950Y-118265800D01*
D13*
G04 #@! TO.C,R11*
X165100724Y-115555500D02*
X164591276Y-115555500D01*
X165100724Y-116600500D02*
X164591276Y-116600500D01*
G04 #@! TO.C,TP3*
X155640000Y-123698000D02*
G75*
G02*
X154240000Y-123698000I-700000J0D01*
G01*
X154240000Y-123698000D02*
G75*
G02*
X155640000Y-123698000I700000J0D01*
G01*
G04 #@! TO.C,R5*
X174092776Y-114285500D02*
X174602224Y-114285500D01*
X174092776Y-115330500D02*
X174602224Y-115330500D01*
G04 #@! TO.C,R3*
X145895276Y-124537500D02*
X146404724Y-124537500D01*
X145895276Y-125582500D02*
X146404724Y-125582500D01*
G04 #@! TO.C,R10*
X158735500Y-115061276D02*
X158735500Y-115570724D01*
X159780500Y-115061276D02*
X159780500Y-115570724D01*
D14*
G04 #@! TO.C,U3*
X164515800Y-119799100D02*
X164515800Y-124040900D01*
X169748200Y-124040900D02*
X169748200Y-119799100D01*
D13*
G04 #@! TO.C,R1*
X145875276Y-120007500D02*
X146384724Y-120007500D01*
X145875276Y-121052500D02*
X146384724Y-121052500D01*
G04 #@! TO.C,C2*
X168763733Y-116584000D02*
X169056267Y-116584000D01*
X168763733Y-117604000D02*
X169056267Y-117604000D01*
G04 #@! TO.C,TP1*
X157672000Y-117094000D02*
G75*
G02*
X156272000Y-117094000I-700000J0D01*
G01*
X156272000Y-117094000D02*
G75*
G02*
X157672000Y-117094000I700000J0D01*
G01*
G04 #@! TO.C,U1*
X156444000Y-119860000D02*
X156539000Y-119860000D01*
X156444000Y-123980000D02*
X156444000Y-119860000D01*
X156539000Y-123980000D02*
X156444000Y-123980000D01*
X161469000Y-119860000D02*
X161564000Y-119860000D01*
X161564000Y-119860000D02*
X161564000Y-123980000D01*
X161564000Y-123980000D02*
X161469000Y-123980000D01*
X161804000Y-119560000D02*
X161474000Y-119320000D01*
X161804000Y-119080000D01*
X161804000Y-119560000D01*
G36*
X161804000Y-119560000D02*
G01*
X161474000Y-119320000D01*
X161804000Y-119080000D01*
X161804000Y-119560000D01*
G37*
G04 #@! TO.C,R12*
X185913500Y-121157276D02*
X185913500Y-121666724D01*
X186958500Y-121157276D02*
X186958500Y-121666724D01*
G04 #@! TO.C,TP2*
X158180000Y-127254000D02*
G75*
G02*
X156780000Y-127254000I-700000J0D01*
G01*
X156780000Y-127254000D02*
G75*
G02*
X158180000Y-127254000I700000J0D01*
G01*
G04 #@! TD*
M02*
