G04 #@! TF.GenerationSoftware,KiCad,Pcbnew,9.0.4-9.0.4-0~ubuntu24.04.1*
G04 #@! TF.CreationDate,2026-02-16T20:27:28+09:00*
G04 #@! TF.ProjectId,Cygolite-Clone,4379676f-6c69-4746-952d-436c6f6e652e,rev?*
G04 #@! TF.SameCoordinates,Original*
G04 #@! TF.FileFunction,Copper,L1,Top*
G04 #@! TF.FilePolarity,Positive*
%FSLAX46Y46*%
G04 Gerber Fmt 4.6, Leading zero omitted, Abs format (unit mm)*
G04 Created by KiCad (PCBNEW 9.0.4-9.0.4-0~ubuntu24.04.1) date 2026-02-16 20:27:28*
%MOMM*%
%LPD*%
G01*
G04 APERTURE LIST*
G04 Aperture macros list*
%AMRoundRect*
0 Rectangle with rounded corners*
0 $1 Rounding radius*
0 $2 $3 $4 $5 $6 $7 $8 $9 X,Y pos of 4 corners*
0 Add a 4 corners polygon primitive as box body*
4,1,4,$2,$3,$4,$5,$6,$7,$8,$9,$2,$3,0*
0 Add four circle primitives for the rounded corners*
1,1,$1+$1,$2,$3*
1,1,$1+$1,$4,$5*
1,1,$1+$1,$6,$7*
1,1,$1+$1,$8,$9*
0 Add four rect primitives between the rounded corners*
20,1,$1+$1,$2,$3,$4,$5,0*
20,1,$1+$1,$4,$5,$6,$7,0*
20,1,$1+$1,$6,$7,$8,$9,0*
20,1,$1+$1,$8,$9,$2,$3,0*%
G04 Aperture macros list end*
G04 #@! TA.AperFunction,ComponentPad*
%ADD10R,0.850000X0.850000*%
G04 #@! TD*
G04 #@! TA.AperFunction,ComponentPad*
%ADD11C,0.850000*%
G04 #@! TD*
G04 #@! TA.AperFunction,SMDPad,CuDef*
%ADD12RoundRect,0.237500X-0.237500X0.250000X-0.237500X-0.250000X0.237500X-0.250000X0.237500X0.250000X0*%
G04 #@! TD*
G04 #@! TA.AperFunction,SMDPad,CuDef*
%ADD13RoundRect,0.237500X0.250000X0.237500X-0.250000X0.237500X-0.250000X-0.237500X0.250000X-0.237500X0*%
G04 #@! TD*
G04 #@! TA.AperFunction,SMDPad,CuDef*
%ADD14RoundRect,0.237500X-0.250000X-0.237500X0.250000X-0.237500X0.250000X0.237500X-0.250000X0.237500X0*%
G04 #@! TD*
G04 #@! TA.AperFunction,SMDPad,CuDef*
%ADD15RoundRect,0.250000X0.750000X-0.250000X0.750000X0.250000X-0.750000X0.250000X-0.750000X-0.250000X0*%
G04 #@! TD*
G04 #@! TA.AperFunction,SMDPad,CuDef*
%ADD16RoundRect,0.150000X0.512500X0.150000X-0.512500X0.150000X-0.512500X-0.150000X0.512500X-0.150000X0*%
G04 #@! TD*
G04 #@! TA.AperFunction,SMDPad,CuDef*
%ADD17C,1.000000*%
G04 #@! TD*
G04 #@! TA.AperFunction,ComponentPad*
%ADD18R,1.700000X1.700000*%
G04 #@! TD*
G04 #@! TA.AperFunction,ComponentPad*
%ADD19C,1.700000*%
G04 #@! TD*
G04 #@! TA.AperFunction,SMDPad,CuDef*
%ADD20RoundRect,0.250000X-0.650000X1.000000X-0.650000X-1.000000X0.650000X-1.000000X0.650000X1.000000X0*%
G04 #@! TD*
G04 #@! TA.AperFunction,SMDPad,CuDef*
%ADD21RoundRect,0.237500X0.237500X-0.250000X0.237500X0.250000X-0.237500X0.250000X-0.237500X-0.250000X0*%
G04 #@! TD*
G04 #@! TA.AperFunction,SMDPad,CuDef*
%ADD22RoundRect,0.237500X-0.237500X0.300000X-0.237500X-0.300000X0.237500X-0.300000X0.237500X0.300000X0*%
G04 #@! TD*
G04 #@! TA.AperFunction,SMDPad,CuDef*
%ADD23R,1.397000X1.600200*%
G04 #@! TD*
G04 #@! TA.AperFunction,SMDPad,CuDef*
%ADD24R,0.533400X1.460500*%
G04 #@! TD*
G04 #@! TA.AperFunction,SMDPad,CuDef*
%ADD25R,3.098800X2.413000*%
G04 #@! TD*
G04 #@! TA.AperFunction,SMDPad,CuDef*
%ADD26R,0.609600X1.193800*%
G04 #@! TD*
G04 #@! TA.AperFunction,SMDPad,CuDef*
%ADD27RoundRect,0.237500X-0.300000X-0.237500X0.300000X-0.237500X0.300000X0.237500X-0.300000X0.237500X0*%
G04 #@! TD*
G04 #@! TA.AperFunction,SMDPad,CuDef*
%ADD28RoundRect,0.150000X-0.150000X0.825000X-0.150000X-0.825000X0.150000X-0.825000X0.150000X0.825000X0*%
G04 #@! TD*
G04 #@! TA.AperFunction,SMDPad,CuDef*
%ADD29RoundRect,0.250000X0.250000X0.750000X-0.250000X0.750000X-0.250000X-0.750000X0.250000X-0.750000X0*%
G04 #@! TD*
G04 #@! TA.AperFunction,ComponentPad*
%ADD30O,1.701800X1.117600*%
G04 #@! TD*
G04 #@! TA.AperFunction,ViaPad*
%ADD31C,0.600000*%
G04 #@! TD*
G04 #@! TA.AperFunction,ViaPad*
%ADD32C,0.800000*%
G04 #@! TD*
G04 #@! TA.AperFunction,Conductor*
%ADD33C,0.200000*%
G04 #@! TD*
G04 #@! TA.AperFunction,Conductor*
%ADD34C,0.500000*%
G04 #@! TD*
G04 APERTURE END LIST*
D10*
G04 #@! TO.P,J2,1,1*
G04 #@! TO.N,VBATTP*
X184070000Y-117560000D03*
D11*
G04 #@! TO.P,J2,2,2*
G04 #@! TO.N,unconnected-(J2-Pad2)*
X184070000Y-116310000D03*
G04 #@! TO.P,J2,3,3*
G04 #@! TO.N,GND*
X184070000Y-115060000D03*
G04 #@! TD*
D12*
G04 #@! TO.P,R4,1*
G04 #@! TO.N,/PROG*
X150622000Y-124309500D03*
G04 #@! TO.P,R4,2*
G04 #@! TO.N,GND*
X150622000Y-126134500D03*
G04 #@! TD*
D13*
G04 #@! TO.P,R8,1*
G04 #@! TO.N,/D_GRN_K*
X154836500Y-116586000D03*
G04 #@! TO.P,R8,2*
G04 #@! TO.N,/STAT*
X153011500Y-116586000D03*
G04 #@! TD*
D14*
G04 #@! TO.P,R2,1*
G04 #@! TO.N,Net-(J1-CC1)*
X145217500Y-122260000D03*
G04 #@! TO.P,R2,2*
G04 #@! TO.N,GND*
X147042500Y-122260000D03*
G04 #@! TD*
D15*
G04 #@! TO.P,SP1,1,1*
G04 #@! TO.N,/VB*
X185900000Y-124460000D03*
G04 #@! TD*
D16*
G04 #@! TO.P,U2,1,STAT*
G04 #@! TO.N,/STAT*
X153029500Y-122108000D03*
G04 #@! TO.P,U2,2,V_{SS}*
G04 #@! TO.N,GND*
X153029500Y-121158000D03*
G04 #@! TO.P,U2,3,V_{BAT}*
G04 #@! TO.N,VBATTP*
X153029500Y-120208000D03*
G04 #@! TO.P,U2,4,V_{DD}*
G04 #@! TO.N,5V_USB*
X150754500Y-120208000D03*
G04 #@! TO.P,U2,5,PROG*
G04 #@! TO.N,/PROG*
X150754500Y-122108000D03*
G04 #@! TD*
D17*
G04 #@! TO.P,TP4,1,1*
G04 #@! TO.N,/STAT*
X151130000Y-116586000D03*
G04 #@! TD*
D18*
G04 #@! TO.P,J4,1,Pin_1*
G04 #@! TO.N,/PA6_USART0_TX*
X145283000Y-115062000D03*
D19*
G04 #@! TO.P,J4,2,Pin_2*
G04 #@! TO.N,/D_RED_K*
X147823000Y-115062000D03*
G04 #@! TD*
D12*
G04 #@! TO.P,R6,1*
G04 #@! TO.N,/D_RED_K*
X171323000Y-124284100D03*
G04 #@! TO.P,R6,2*
G04 #@! TO.N,GND*
X171323000Y-126109100D03*
G04 #@! TD*
D18*
G04 #@! TO.P,J3,1,Pin_1*
G04 #@! TO.N,GND*
X160782000Y-127508000D03*
D19*
G04 #@! TO.P,J3,2,Pin_2*
G04 #@! TO.N,/nRST-UDPI*
X163322000Y-127508000D03*
G04 #@! TO.P,J3,3,Pin_3*
G04 #@! TO.N,VBATTP*
X165862000Y-127508000D03*
G04 #@! TD*
D15*
G04 #@! TO.P,SP6,1,1*
G04 #@! TO.N,/D_K*
X185900000Y-127300000D03*
G04 #@! TD*
D20*
G04 #@! TO.P,D1,1,A1*
G04 #@! TO.N,GND*
X142220000Y-119372500D03*
G04 #@! TO.P,D1,2,A2*
G04 #@! TO.N,5V_USB_In*
X142220000Y-123372500D03*
G04 #@! TD*
D12*
G04 #@! TO.P,R7,1*
G04 #@! TO.N,/PA3_WO0_AIN3*
X155448000Y-125579500D03*
G04 #@! TO.P,R7,2*
G04 #@! TO.N,Net-(R10-Pad1)*
X155448000Y-127404500D03*
G04 #@! TD*
D21*
G04 #@! TO.P,R9,1*
G04 #@! TO.N,VBATTP*
X161036000Y-116228500D03*
G04 #@! TO.P,R9,2*
G04 #@! TO.N,Net-(R10-Pad1)*
X161036000Y-114403500D03*
G04 #@! TD*
D22*
G04 #@! TO.P,C1,1*
G04 #@! TO.N,5V_USB*
X149098000Y-124359500D03*
G04 #@! TO.P,C1,2*
G04 #@! TO.N,GND*
X149098000Y-126084500D03*
G04 #@! TD*
D23*
G04 #@! TO.P,SW1,1,1*
G04 #@! TO.N,/D_RED_A*
X174111250Y-125593700D03*
G04 #@! TO.P,SW1,2,2*
X174111250Y-117186300D03*
G04 #@! TO.P,SW1,3,3*
G04 #@! TO.N,/D_RED_K*
X178607050Y-125593700D03*
G04 #@! TO.P,SW1,4,4*
X178607050Y-117186300D03*
G04 #@! TO.P,SW1,5,SHD*
G04 #@! TO.N,GND*
X176359150Y-117186300D03*
G04 #@! TD*
D13*
G04 #@! TO.P,R11,1*
G04 #@! TO.N,/Rset*
X165758500Y-116078000D03*
G04 #@! TO.P,R11,2*
G04 #@! TO.N,GND*
X163933500Y-116078000D03*
G04 #@! TD*
D15*
G04 #@! TO.P,SP4,1,1*
G04 #@! TO.N,5V_USB_In*
X135700000Y-120400000D03*
G04 #@! TD*
D17*
G04 #@! TO.P,TP3,1,1*
G04 #@! TO.N,/PA3_WO0_AIN3*
X154940000Y-123698000D03*
G04 #@! TD*
D14*
G04 #@! TO.P,R5,1*
G04 #@! TO.N,VBATTP*
X173435000Y-114808000D03*
G04 #@! TO.P,R5,2*
G04 #@! TO.N,/D_RED_A*
X175260000Y-114808000D03*
G04 #@! TD*
G04 #@! TO.P,R3,1*
G04 #@! TO.N,5V_USB_In*
X145237500Y-125060000D03*
G04 #@! TO.P,R3,2*
G04 #@! TO.N,5V_USB*
X147062500Y-125060000D03*
G04 #@! TD*
D12*
G04 #@! TO.P,R10,1*
G04 #@! TO.N,Net-(R10-Pad1)*
X159258000Y-114403500D03*
G04 #@! TO.P,R10,2*
G04 #@! TO.N,/PA6_USART0_TX*
X159258000Y-116228500D03*
G04 #@! TD*
D24*
G04 #@! TO.P,U3,1,VIN*
G04 #@! TO.N,VBATTP*
X169037000Y-119195850D03*
G04 #@! TO.P,U3,2,EN*
G04 #@! TO.N,/PA3_WO0_AIN3*
X167767000Y-119195850D03*
G04 #@! TO.P,U3,3,RSET*
G04 #@! TO.N,/Rset*
X166497000Y-119195850D03*
G04 #@! TO.P,U3,4,GND*
G04 #@! TO.N,GND*
X165227000Y-119195850D03*
G04 #@! TO.P,U3,5,D1*
G04 #@! TO.N,/D_K*
X165227000Y-124644150D03*
G04 #@! TO.P,U3,6,D1*
X166497000Y-124644150D03*
G04 #@! TO.P,U3,7,D1*
X167767000Y-124644150D03*
G04 #@! TO.P,U3,8,D1*
X169037000Y-124644150D03*
D25*
G04 #@! TO.P,U3,EPAD,EPAD*
G04 #@! TO.N,GND*
X167132000Y-121920000D03*
G04 #@! TD*
D14*
G04 #@! TO.P,R1,1*
G04 #@! TO.N,Net-(J1-CC2)*
X145217500Y-120530000D03*
G04 #@! TO.P,R1,2*
G04 #@! TO.N,GND*
X147042500Y-120530000D03*
G04 #@! TD*
D26*
G04 #@! TO.P,LED1,1,1*
G04 #@! TO.N,5V_USB*
X171135000Y-120384999D03*
G04 #@! TO.P,LED1,2,2*
G04 #@! TO.N,/D_GRN_K*
X171135000Y-122185001D03*
G04 #@! TO.P,LED1,3,3*
G04 #@! TO.N,/D_RED_K*
X172085000Y-122185001D03*
G04 #@! TO.P,LED1,4,4*
G04 #@! TO.N,/D_RED_A*
X172085000Y-120384999D03*
G04 #@! TD*
D27*
G04 #@! TO.P,C2,1*
G04 #@! TO.N,VBATTP*
X168047500Y-117094000D03*
G04 #@! TO.P,C2,2*
G04 #@! TO.N,GND*
X169772500Y-117094000D03*
G04 #@! TD*
D17*
G04 #@! TO.P,TP1,1,1*
G04 #@! TO.N,/PA1*
X156972000Y-117094000D03*
G04 #@! TD*
D28*
G04 #@! TO.P,U1,1,VCC*
G04 #@! TO.N,VBATTP*
X160909000Y-119445000D03*
G04 #@! TO.P,U1,2,PA6*
G04 #@! TO.N,/PA6_USART0_TX*
X159639000Y-119445000D03*
G04 #@! TO.P,U1,3,PA7*
G04 #@! TO.N,/D_RED_K*
X158369000Y-119445000D03*
G04 #@! TO.P,U1,4,PA1*
G04 #@! TO.N,/PA1*
X157099000Y-119445000D03*
G04 #@! TO.P,U1,5,PA2*
G04 #@! TO.N,/PA2*
X157099000Y-124395000D03*
G04 #@! TO.P,U1,6,~{RESET}/PA0*
G04 #@! TO.N,/nRST-UDPI*
X158369000Y-124395000D03*
G04 #@! TO.P,U1,7,PA3*
G04 #@! TO.N,/PA3_WO0_AIN3*
X159639000Y-124395000D03*
G04 #@! TO.P,U1,8,GND*
G04 #@! TO.N,GND*
X160909000Y-124395000D03*
G04 #@! TD*
D12*
G04 #@! TO.P,R12,1*
G04 #@! TO.N,VBATTP*
X186436000Y-120499500D03*
G04 #@! TO.P,R12,2*
G04 #@! TO.N,/VB*
X186436000Y-122324500D03*
G04 #@! TD*
D17*
G04 #@! TO.P,TP2,1,1*
G04 #@! TO.N,/PA2*
X157480000Y-127254000D03*
G04 #@! TD*
D29*
G04 #@! TO.P,SP2,1,1*
G04 #@! TO.N,GND*
X183400000Y-122100000D03*
G04 #@! TD*
D15*
G04 #@! TO.P,SP3,1,1*
G04 #@! TO.N,GND*
X135800000Y-122500000D03*
G04 #@! TD*
D30*
G04 #@! TO.P,J1,S1,SHIELD*
G04 #@! TO.N,unconnected-(J1-SHIELD-PadS1)_1*
X133999994Y-125732002D03*
G04 #@! TO.N,unconnected-(J1-SHIELD-PadS1)*
X137800000Y-125732002D03*
G04 #@! TO.N,unconnected-(J1-SHIELD-PadS1)_3*
X133999994Y-117091998D03*
G04 #@! TO.N,unconnected-(J1-SHIELD-PadS1)_2*
X137800000Y-117091998D03*
G04 #@! TD*
D31*
G04 #@! TO.N,GND*
X166039800Y-121107200D03*
X176946502Y-128526407D03*
X163906200Y-125247400D03*
X168173400Y-121920000D03*
X148640800Y-120091200D03*
X160800000Y-122900000D03*
X181600000Y-117900000D03*
X167132000Y-122682000D03*
X142392400Y-126568200D03*
X176961800Y-119583200D03*
X183616600Y-125704600D03*
X163100000Y-123400000D03*
X140411200Y-127914400D03*
X185820000Y-116992400D03*
X160553400Y-117525800D03*
X143027400Y-116484400D03*
X183400000Y-128400000D03*
X177368200Y-122580400D03*
X141325600Y-115011200D03*
X176060000Y-121390000D03*
X180700000Y-124200000D03*
X166039800Y-122707400D03*
X168173400Y-121132600D03*
X186994800Y-118440200D03*
X186664600Y-114960400D03*
X151714200Y-127965200D03*
X180200000Y-117100000D03*
X147701000Y-127838200D03*
X180700000Y-119300000D03*
X137845800Y-115036600D03*
X144907000Y-118262400D03*
X182702200Y-115062000D03*
X174777400Y-120142000D03*
X163703000Y-118846600D03*
X137414000Y-127838200D03*
X167132000Y-121132600D03*
X163700000Y-122100000D03*
X172345515Y-127035532D03*
X134645400Y-114935000D03*
X179846489Y-128400000D03*
X182016400Y-114350800D03*
X176098200Y-123571000D03*
X166039800Y-121945400D03*
X162077400Y-119862600D03*
X134416800Y-127939800D03*
X161800000Y-125000000D03*
X144627600Y-127914400D03*
X182753000Y-120294400D03*
X168173400Y-122707400D03*
X167132000Y-121920000D03*
G04 #@! TO.N,5V_USB*
X151130000Y-118110000D03*
X172212000Y-118760000D03*
G04 #@! TO.N,VBATTP*
X162000000Y-123000000D03*
X160274000Y-121412000D03*
D32*
G04 #@! TO.N,5V_USB_In*
X140081000Y-120269000D03*
X140462000Y-122682000D03*
D31*
G04 #@! TO.N,Net-(J1-CC1)*
X143764000Y-122174000D03*
G04 #@! TO.N,Net-(J1-CC2)*
X143510000Y-121158000D03*
G04 #@! TO.N,/D_RED_K*
X154178000Y-117856000D03*
X163300000Y-124600000D03*
X156210000Y-120650000D03*
G04 #@! TO.N,/PA6_USART0_TX*
X158242000Y-116840000D03*
G04 #@! TO.N,/D_GRN_K*
X154940000Y-115570000D03*
X171165790Y-119017582D03*
G04 #@! TO.N,/D_RED_A*
X176530000Y-114808000D03*
X173482000Y-116078000D03*
G04 #@! TO.N,Net-(R10-Pad1)*
X155306000Y-119522000D03*
X154734781Y-121459980D03*
G04 #@! TO.N,/STAT*
X153416000Y-118364000D03*
X154185841Y-120811005D03*
G04 #@! TO.N,/Rset*
X166037380Y-118188620D03*
X166878000Y-116332000D03*
G04 #@! TD*
D33*
G04 #@! TO.N,GND*
X160909000Y-123009000D02*
X160800000Y-122900000D01*
X161195000Y-124395000D02*
X161800000Y-125000000D01*
X171323000Y-126109100D02*
X172249432Y-127035532D01*
X160909000Y-124395000D02*
X161195000Y-124395000D01*
X160909000Y-124395000D02*
X160909000Y-123009000D01*
X172249432Y-127035532D02*
X172345515Y-127035532D01*
G04 #@! TO.N,5V_USB*
X151130000Y-118110000D02*
X151130000Y-119832500D01*
D34*
X149098000Y-124359500D02*
X149098000Y-121864500D01*
D33*
X171135000Y-120384999D02*
X171135000Y-119967611D01*
D34*
X147062500Y-125060000D02*
X148397500Y-125060000D01*
X149098000Y-121864500D02*
X150754500Y-120208000D01*
D33*
X172212000Y-118890611D02*
X172212000Y-118760000D01*
D34*
X148397500Y-125060000D02*
X149098000Y-124359500D01*
D33*
X151130000Y-119832500D02*
X150754500Y-120208000D01*
X171135000Y-119967611D02*
X172212000Y-118890611D01*
D34*
G04 #@! TO.N,VBATTP*
X162306000Y-118110000D02*
X163068000Y-117348000D01*
X167793500Y-117348000D02*
X163068000Y-117348000D01*
X153329500Y-119908000D02*
X154560629Y-119908000D01*
D33*
X163700000Y-126000000D02*
X162000000Y-124300000D01*
D34*
X183346000Y-117560000D02*
X181610000Y-115824000D01*
X160274000Y-121412000D02*
X160909000Y-120777000D01*
X172212000Y-115543500D02*
X172212000Y-116840000D01*
D33*
X161798000Y-115062000D02*
X161798000Y-115466500D01*
X162828000Y-114032000D02*
X161798000Y-115062000D01*
D34*
X155410000Y-120757371D02*
X155410000Y-120981371D01*
X172212000Y-116840000D02*
X169856150Y-119195850D01*
X160909000Y-119445000D02*
X162244000Y-118110000D01*
X173435000Y-114808000D02*
X173482000Y-114808000D01*
X172947500Y-114808000D02*
X172212000Y-115543500D01*
X169856150Y-119195850D02*
X169037000Y-119195850D01*
X168047500Y-117094000D02*
X167793500Y-117348000D01*
X160909000Y-120777000D02*
X160909000Y-119445000D01*
X155840629Y-121412000D02*
X160274000Y-121412000D01*
X155410000Y-120981371D02*
X155840629Y-121412000D01*
X169037000Y-119195850D02*
X169037000Y-118083500D01*
D33*
X184070000Y-117560000D02*
X184070000Y-117522000D01*
X165892000Y-127508000D02*
X166000000Y-127400000D01*
D34*
X184070000Y-117560000D02*
X183346000Y-117560000D01*
D33*
X166000000Y-127400000D02*
X164600000Y-126000000D01*
D34*
X154560629Y-119908000D02*
X155410000Y-120757371D01*
D33*
X162000000Y-124300000D02*
X162000000Y-123000000D01*
X165862000Y-127508000D02*
X165892000Y-127508000D01*
D34*
X174498000Y-115824000D02*
X181610000Y-115824000D01*
D33*
X161798000Y-115466500D02*
X161036000Y-116228500D01*
X164600000Y-126000000D02*
X163700000Y-126000000D01*
D34*
X173482000Y-114808000D02*
X174498000Y-115824000D01*
X169037000Y-118083500D02*
X168047500Y-117094000D01*
D33*
X184070000Y-117522000D02*
X180580000Y-114032000D01*
D34*
X160909000Y-116355500D02*
X161036000Y-116228500D01*
X184070000Y-117560000D02*
X184070000Y-118133500D01*
X162244000Y-118110000D02*
X162306000Y-118110000D01*
X173435000Y-114808000D02*
X172947500Y-114808000D01*
X153029500Y-120208000D02*
X153329500Y-119908000D01*
D33*
X180580000Y-114032000D02*
X162828000Y-114032000D01*
D34*
X161036000Y-116228500D02*
X161186500Y-116228500D01*
X184070000Y-118133500D02*
X186436000Y-120499500D01*
G04 #@! TO.N,5V_USB_In*
X142220000Y-123372500D02*
X143550000Y-123372500D01*
X140081000Y-120269000D02*
X140081000Y-120523000D01*
X140462000Y-122682000D02*
X141529500Y-122682000D01*
X141529500Y-122682000D02*
X142220000Y-123372500D01*
X143550000Y-123372500D02*
X145237500Y-125060000D01*
X140081000Y-120269000D02*
X136017000Y-120269000D01*
X142220000Y-122662000D02*
X142220000Y-123372500D01*
X136017000Y-120269000D02*
X135890000Y-120396000D01*
X140081000Y-120523000D02*
X142220000Y-122662000D01*
D33*
G04 #@! TO.N,Net-(J1-CC1)*
X145131500Y-122174000D02*
X145217500Y-122260000D01*
X143764000Y-122174000D02*
X145131500Y-122174000D01*
G04 #@! TO.N,Net-(J1-CC2)*
X143510000Y-121158000D02*
X144589500Y-121158000D01*
X144589500Y-121158000D02*
X145217500Y-120530000D01*
G04 #@! TO.N,/nRST-UDPI*
X159004000Y-125984000D02*
X161798000Y-125984000D01*
X158369000Y-124395000D02*
X158369000Y-125349000D01*
X158369000Y-125349000D02*
X159004000Y-125984000D01*
X161798000Y-125984000D02*
X163322000Y-127508000D01*
G04 #@! TO.N,/D_RED_K*
X178607050Y-117186300D02*
X178607050Y-125593700D01*
X158067999Y-120721000D02*
X156281000Y-120721000D01*
X173551400Y-127000000D02*
X171323000Y-124771600D01*
X156281000Y-120721000D02*
X156210000Y-120650000D01*
X171323000Y-124771600D02*
X171323000Y-124284100D01*
X171323000Y-123825000D02*
X171323000Y-124284100D01*
X172085000Y-122185001D02*
X172085000Y-123063000D01*
X176591231Y-127000000D02*
X173551400Y-127000000D01*
X178607050Y-125593700D02*
X178607050Y-125695300D01*
X176841231Y-126750000D02*
X176591231Y-127000000D01*
X177552350Y-126750000D02*
X176841231Y-126750000D01*
X148116000Y-115355000D02*
X147823000Y-115062000D01*
X158369000Y-119445000D02*
X158369000Y-120419999D01*
X178607050Y-125695300D02*
X177552350Y-126750000D01*
X153924000Y-116242866D02*
X153036134Y-115355000D01*
X169627500Y-123427500D02*
X164472500Y-123427500D01*
X164472500Y-123427500D02*
X163300000Y-124600000D01*
X172085000Y-123063000D02*
X171323000Y-123825000D01*
X154178000Y-117856000D02*
X153924000Y-117602000D01*
X153036134Y-115355000D02*
X148116000Y-115355000D01*
X170484100Y-124284100D02*
X169627500Y-123427500D01*
X153924000Y-117602000D02*
X153924000Y-116242866D01*
X171323000Y-124284100D02*
X170484100Y-124284100D01*
X158369000Y-120419999D02*
X158067999Y-120721000D01*
G04 #@! TO.N,/PA6_USART0_TX*
X159639000Y-117348000D02*
X159639000Y-116609500D01*
X159639000Y-119445000D02*
X159639000Y-117348000D01*
X159639000Y-117348000D02*
X158750000Y-117348000D01*
X158750000Y-117348000D02*
X158242000Y-116840000D01*
X159639000Y-116609500D02*
X159258000Y-116228500D01*
G04 #@! TO.N,/D_GRN_K*
X170499800Y-119683572D02*
X171165790Y-119017582D01*
X170499800Y-121549801D02*
X170499800Y-119683572D01*
X154940000Y-115570000D02*
X154940000Y-116482500D01*
X171135000Y-122185001D02*
X170499800Y-121549801D01*
X154940000Y-116482500D02*
X154836500Y-116586000D01*
G04 #@! TO.N,/D_RED_A*
X176530000Y-114808000D02*
X175260000Y-114808000D01*
X174111250Y-117186300D02*
X174111250Y-118358749D01*
X174111250Y-116707250D02*
X173482000Y-116078000D01*
X174111250Y-118358749D02*
X172085000Y-120384999D01*
X174111250Y-122411249D02*
X172085000Y-120384999D01*
X174111250Y-117186300D02*
X174111250Y-116707250D01*
X174111250Y-125593700D02*
X174111250Y-122411249D01*
G04 #@! TO.N,/PROG*
X150622000Y-124309500D02*
X150622000Y-122240500D01*
X150622000Y-122240500D02*
X150754500Y-122108000D01*
G04 #@! TO.N,/PA3_WO0_AIN3*
X155448000Y-125579500D02*
X155448000Y-124206000D01*
X167767000Y-119659400D02*
X167767000Y-119195850D01*
X160632161Y-122148600D02*
X161696400Y-122148600D01*
X159639000Y-123141761D02*
X160632161Y-122148600D01*
X163449000Y-120396000D02*
X167030400Y-120396000D01*
X159639000Y-123240800D02*
X159334200Y-122936000D01*
X159639000Y-124395000D02*
X159639000Y-123240800D01*
X155702000Y-122936000D02*
X154940000Y-123698000D01*
X159639000Y-124395000D02*
X159639000Y-123141761D01*
X155448000Y-124206000D02*
X154940000Y-123698000D01*
X161696400Y-122148600D02*
X163449000Y-120396000D01*
X167030400Y-120396000D02*
X167767000Y-119659400D01*
X159334200Y-122936000D02*
X155702000Y-122936000D01*
G04 #@! TO.N,Net-(R10-Pad1)*
X154734781Y-122125219D02*
X154734781Y-121459980D01*
X155448000Y-127404500D02*
X155448000Y-126917000D01*
X155316134Y-117362000D02*
X155306000Y-117362000D01*
X153670000Y-125139000D02*
X153670000Y-123855239D01*
X153812000Y-123713239D02*
X153812000Y-123048000D01*
X153812000Y-123048000D02*
X154734781Y-122125219D01*
X161036000Y-114403500D02*
X159258000Y-114403500D01*
X155306000Y-117362000D02*
X155306000Y-119522000D01*
X155448000Y-126917000D02*
X153670000Y-125139000D01*
X159258000Y-114403500D02*
X158274634Y-114403500D01*
X153670000Y-123855239D02*
X153812000Y-123713239D01*
X158274634Y-114403500D02*
X155316134Y-117362000D01*
G04 #@! TO.N,/STAT*
X153011500Y-116586000D02*
X151130000Y-116586000D01*
X154128855Y-121671144D02*
X154128855Y-120867991D01*
X153011500Y-117959500D02*
X153416000Y-118364000D01*
X153011500Y-116586000D02*
X153011500Y-117959500D01*
X154128855Y-120867991D02*
X154185841Y-120811005D01*
X153029500Y-122108000D02*
X153691999Y-122108000D01*
X153691999Y-122108000D02*
X154128855Y-121671144D01*
G04 #@! TO.N,/PA1*
X157099000Y-119445000D02*
X157099000Y-117729000D01*
X156972000Y-117602000D02*
X156972000Y-117094000D01*
X157099000Y-117729000D02*
X156972000Y-117602000D01*
G04 #@! TO.N,/PA2*
X156972000Y-126746000D02*
X156972000Y-124522000D01*
X156972000Y-124522000D02*
X157099000Y-124395000D01*
X157480000Y-127254000D02*
X156972000Y-126746000D01*
G04 #@! TO.N,/Rset*
X166012500Y-116332000D02*
X165758500Y-116078000D01*
X166497000Y-119195850D02*
X166497000Y-118491000D01*
X166194620Y-118188620D02*
X166037380Y-118188620D01*
X166878000Y-116332000D02*
X166012500Y-116332000D01*
X166497000Y-118491000D02*
X166194620Y-118188620D01*
D34*
G04 #@! TO.N,/D_K*
X168402000Y-125984000D02*
X169037000Y-125349000D01*
X169037000Y-125349000D02*
X169037000Y-124644150D01*
X165227000Y-124644150D02*
X165227000Y-125603000D01*
X167640000Y-125984000D02*
X167640000Y-124771150D01*
X166370000Y-125984000D02*
X167640000Y-125984000D01*
X165608000Y-125984000D02*
X166370000Y-125984000D01*
D33*
X167767000Y-124644150D02*
X167824150Y-124644150D01*
D34*
X177069049Y-127300000D02*
X185900000Y-127300000D01*
X170300000Y-127800000D02*
X176569049Y-127800000D01*
X168384135Y-125966135D02*
X168466135Y-125966135D01*
X166370000Y-124771150D02*
X166497000Y-124644150D01*
X167640000Y-124771150D02*
X167767000Y-124644150D01*
X168466135Y-125966135D02*
X170300000Y-127800000D01*
X176569049Y-127800000D02*
X177069049Y-127300000D01*
X166370000Y-125984000D02*
X166370000Y-124771150D01*
X167640000Y-125984000D02*
X168402000Y-125984000D01*
X165227000Y-125603000D02*
X165608000Y-125984000D01*
D33*
X167824150Y-124644150D02*
X167894000Y-124714000D01*
D34*
G04 #@! TO.N,/VB*
X186436000Y-122324500D02*
X186436000Y-124206000D01*
X186436000Y-124206000D02*
X186690000Y-124460000D01*
G04 #@! TD*
G04 #@! TA.AperFunction,Conductor*
G04 #@! TO.N,GND*
G36*
X144123205Y-113910185D02*
G01*
X144168960Y-113962989D01*
X144178904Y-114032147D01*
X144169600Y-114064586D01*
X144135416Y-114142004D01*
X144135415Y-114142008D01*
X144132500Y-114167131D01*
X144132500Y-115956856D01*
X144132502Y-115956882D01*
X144135413Y-115981987D01*
X144135415Y-115981991D01*
X144180793Y-116084764D01*
X144180794Y-116084765D01*
X144260235Y-116164206D01*
X144363009Y-116209585D01*
X144388135Y-116212500D01*
X146177864Y-116212499D01*
X146177879Y-116212497D01*
X146177882Y-116212497D01*
X146202987Y-116209586D01*
X146202988Y-116209585D01*
X146202991Y-116209585D01*
X146305765Y-116164206D01*
X146385206Y-116084765D01*
X146430585Y-115981991D01*
X146433500Y-115956865D01*
X146433499Y-115219125D01*
X146453183Y-115152089D01*
X146505987Y-115106334D01*
X146575146Y-115096390D01*
X146638702Y-115125415D01*
X146676476Y-115184193D01*
X146679972Y-115199729D01*
X146700829Y-115331410D01*
X146756787Y-115503636D01*
X146756788Y-115503639D01*
X146839006Y-115664997D01*
X146945441Y-115811494D01*
X146945445Y-115811499D01*
X147073500Y-115939554D01*
X147073505Y-115939558D01*
X147185655Y-116021039D01*
X147220006Y-116045996D01*
X147325484Y-116099740D01*
X147381360Y-116128211D01*
X147381363Y-116128212D01*
X147467476Y-116156191D01*
X147553591Y-116184171D01*
X147636429Y-116197291D01*
X147732449Y-116212500D01*
X147732454Y-116212500D01*
X147913551Y-116212500D01*
X148000259Y-116198765D01*
X148092409Y-116184171D01*
X148264639Y-116128211D01*
X148425994Y-116045996D01*
X148572501Y-115939553D01*
X148700553Y-115811501D01*
X148704104Y-115806614D01*
X148759435Y-115763949D01*
X148804422Y-115755500D01*
X150529059Y-115755500D01*
X150596098Y-115775185D01*
X150641853Y-115827989D01*
X150651797Y-115897147D01*
X150622772Y-115960703D01*
X150616740Y-115967181D01*
X150508213Y-116075707D01*
X150508210Y-116075711D01*
X150420609Y-116206814D01*
X150420602Y-116206827D01*
X150360264Y-116352498D01*
X150360261Y-116352510D01*
X150329500Y-116507153D01*
X150329500Y-116664846D01*
X150360261Y-116819489D01*
X150360264Y-116819501D01*
X150420602Y-116965172D01*
X150420609Y-116965185D01*
X150508210Y-117096288D01*
X150508213Y-117096292D01*
X150619707Y-117207786D01*
X150619711Y-117207789D01*
X150750814Y-117295390D01*
X150750827Y-117295397D01*
X150861535Y-117341253D01*
X150915939Y-117385093D01*
X150938004Y-117451387D01*
X150920725Y-117519087D01*
X150876083Y-117563201D01*
X150761287Y-117629477D01*
X150761282Y-117629481D01*
X150649481Y-117741282D01*
X150649475Y-117741290D01*
X150570426Y-117878209D01*
X150570423Y-117878216D01*
X150529500Y-118030943D01*
X150529500Y-118189057D01*
X150565264Y-118322528D01*
X150570423Y-118341783D01*
X150570426Y-118341790D01*
X150649475Y-118478709D01*
X150649481Y-118478717D01*
X150693181Y-118522417D01*
X150726666Y-118583740D01*
X150729500Y-118610098D01*
X150729500Y-119483500D01*
X150709815Y-119550539D01*
X150657011Y-119596294D01*
X150605500Y-119607500D01*
X150187730Y-119607500D01*
X150157300Y-119610353D01*
X150157298Y-119610353D01*
X150029119Y-119655206D01*
X150029117Y-119655207D01*
X149919850Y-119735850D01*
X149839207Y-119845117D01*
X149839206Y-119845119D01*
X149794353Y-119973298D01*
X149794353Y-119973300D01*
X149791500Y-120003730D01*
X149791500Y-120341113D01*
X149771815Y-120408152D01*
X149755181Y-120428794D01*
X148657491Y-121526483D01*
X148657487Y-121526488D01*
X148595495Y-121633862D01*
X148595494Y-121633866D01*
X148585016Y-121652015D01*
X148547500Y-121792025D01*
X148547500Y-121792027D01*
X148547500Y-123560069D01*
X148527815Y-123627108D01*
X148498426Y-123658872D01*
X148476500Y-123675498D01*
X148387139Y-123793339D01*
X148332882Y-123930924D01*
X148332882Y-123930925D01*
X148322500Y-124017381D01*
X148322500Y-124305113D01*
X148313855Y-124334553D01*
X148307332Y-124364540D01*
X148303577Y-124369555D01*
X148302815Y-124372152D01*
X148286181Y-124392794D01*
X148205794Y-124473181D01*
X148144471Y-124506666D01*
X148118113Y-124509500D01*
X147811931Y-124509500D01*
X147744892Y-124489815D01*
X147713128Y-124460426D01*
X147696501Y-124438500D01*
X147578660Y-124349139D01*
X147578658Y-124349138D01*
X147441077Y-124294883D01*
X147441076Y-124294882D01*
X147441074Y-124294882D01*
X147354619Y-124284500D01*
X147354618Y-124284500D01*
X146770382Y-124284500D01*
X146770381Y-124284500D01*
X146683925Y-124294882D01*
X146683924Y-124294882D01*
X146546339Y-124349139D01*
X146428499Y-124438499D01*
X146339139Y-124556339D01*
X146284882Y-124693924D01*
X146284882Y-124693925D01*
X146274500Y-124780381D01*
X146274500Y-125339618D01*
X146284882Y-125426074D01*
X146284882Y-125426075D01*
X146295836Y-125453853D01*
X146333916Y-125550417D01*
X146339139Y-125563660D01*
X146428499Y-125681500D01*
X146534832Y-125762134D01*
X146546342Y-125770862D01*
X146683923Y-125825117D01*
X146741562Y-125832039D01*
X146770381Y-125835500D01*
X146770382Y-125835500D01*
X147354619Y-125835500D01*
X147376232Y-125832904D01*
X147441077Y-125825117D01*
X147578658Y-125770862D01*
X147696500Y-125681500D01*
X147701420Y-125675012D01*
X147713128Y-125659574D01*
X147716483Y-125657094D01*
X147718218Y-125653297D01*
X147744343Y-125636507D01*
X147769320Y-125618051D01*
X147774487Y-125617135D01*
X147776996Y-125615523D01*
X147811931Y-125610500D01*
X147999000Y-125610500D01*
X148066039Y-125630185D01*
X148111794Y-125682989D01*
X148123000Y-125734500D01*
X148123000Y-125834500D01*
X150101638Y-125834500D01*
X150168677Y-125854185D01*
X150189319Y-125870819D01*
X150203000Y-125884500D01*
X151596999Y-125884500D01*
X151596999Y-125835360D01*
X151596998Y-125835345D01*
X151586680Y-125734347D01*
X151532453Y-125570699D01*
X151532448Y-125570688D01*
X151441947Y-125423965D01*
X151441944Y-125423961D01*
X151320038Y-125302055D01*
X151320034Y-125302052D01*
X151171107Y-125210192D01*
X151124382Y-125158244D01*
X151113161Y-125089282D01*
X151141004Y-125025200D01*
X151161279Y-125005850D01*
X151243500Y-124943500D01*
X151332862Y-124825658D01*
X151387117Y-124688077D01*
X151397500Y-124601618D01*
X151397500Y-124017382D01*
X151387117Y-123930923D01*
X151332862Y-123793342D01*
X151332860Y-123793339D01*
X151243500Y-123675499D01*
X151125657Y-123586137D01*
X151101009Y-123576417D01*
X151045866Y-123533511D01*
X151022673Y-123467603D01*
X151022500Y-123461063D01*
X151022500Y-122832500D01*
X151042185Y-122765461D01*
X151094989Y-122719706D01*
X151146500Y-122708500D01*
X151321270Y-122708500D01*
X151351699Y-122705646D01*
X151351701Y-122705646D01*
X151415790Y-122683219D01*
X151479882Y-122660793D01*
X151589150Y-122580150D01*
X151669793Y-122470882D01*
X151704697Y-122371132D01*
X151714646Y-122342701D01*
X151714646Y-122342699D01*
X151717500Y-122312269D01*
X151717500Y-121903730D01*
X151714646Y-121873300D01*
X151714646Y-121873298D01*
X151674668Y-121759050D01*
X151669793Y-121745118D01*
X151589150Y-121635850D01*
X151479882Y-121555207D01*
X151479880Y-121555206D01*
X151351700Y-121510353D01*
X151321270Y-121507500D01*
X151321266Y-121507500D01*
X150532887Y-121507500D01*
X150465848Y-121487815D01*
X150420093Y-121435011D01*
X150410149Y-121365853D01*
X150439174Y-121302297D01*
X150445206Y-121295819D01*
X150896206Y-120844819D01*
X150957529Y-120811334D01*
X150983887Y-120808500D01*
X151321270Y-120808500D01*
X151351699Y-120805646D01*
X151351701Y-120805646D01*
X151424991Y-120780000D01*
X151479882Y-120760793D01*
X151589150Y-120680150D01*
X151669793Y-120570882D01*
X151697382Y-120492036D01*
X151714646Y-120442701D01*
X151714646Y-120442699D01*
X151717500Y-120412269D01*
X151717500Y-120003730D01*
X151714646Y-119973300D01*
X151714646Y-119973298D01*
X151676925Y-119865500D01*
X151669793Y-119845118D01*
X151589150Y-119735850D01*
X151589147Y-119735848D01*
X151589146Y-119735846D01*
X151580863Y-119729733D01*
X151538614Y-119674084D01*
X151530500Y-119629965D01*
X151530500Y-118610098D01*
X151550185Y-118543059D01*
X151566819Y-118522417D01*
X151575899Y-118513337D01*
X151610520Y-118478716D01*
X151689577Y-118341784D01*
X151730500Y-118189057D01*
X151730500Y-118030943D01*
X151689577Y-117878216D01*
X151675305Y-117853496D01*
X151610524Y-117741290D01*
X151610518Y-117741282D01*
X151498717Y-117629481D01*
X151498716Y-117629480D01*
X151383915Y-117563200D01*
X151335701Y-117512635D01*
X151322477Y-117444028D01*
X151348445Y-117379163D01*
X151398460Y-117341254D01*
X151509179Y-117295394D01*
X151640289Y-117207789D01*
X151751789Y-117096289D01*
X151767332Y-117073027D01*
X151788325Y-117041610D01*
X151841937Y-116996804D01*
X151891427Y-116986500D01*
X152163064Y-116986500D01*
X152230103Y-117006185D01*
X152275858Y-117058989D01*
X152278412Y-117064996D01*
X152278417Y-117065008D01*
X152278419Y-117065011D01*
X152288138Y-117089658D01*
X152288139Y-117089660D01*
X152377499Y-117207500D01*
X152493406Y-117295394D01*
X152495342Y-117296862D01*
X152532488Y-117311510D01*
X152587633Y-117354415D01*
X152610827Y-117420322D01*
X152611000Y-117426865D01*
X152611000Y-117906773D01*
X152611000Y-118012227D01*
X152616099Y-118031256D01*
X152638293Y-118114089D01*
X152651099Y-118136269D01*
X152691020Y-118205413D01*
X152691022Y-118205415D01*
X152779181Y-118293574D01*
X152812666Y-118354897D01*
X152815500Y-118381255D01*
X152815500Y-118443057D01*
X152844293Y-118550512D01*
X152856423Y-118595783D01*
X152856426Y-118595790D01*
X152935475Y-118732709D01*
X152935479Y-118732714D01*
X152935480Y-118732716D01*
X153047284Y-118844520D01*
X153047286Y-118844521D01*
X153047290Y-118844524D01*
X153165738Y-118912909D01*
X153184216Y-118923577D01*
X153336943Y-118964500D01*
X153336945Y-118964500D01*
X153495055Y-118964500D01*
X153495057Y-118964500D01*
X153647784Y-118923577D01*
X153784716Y-118844520D01*
X153896520Y-118732716D01*
X153975577Y-118595784D01*
X153988272Y-118548405D01*
X154024636Y-118488746D01*
X154087482Y-118458217D01*
X154108046Y-118456500D01*
X154257055Y-118456500D01*
X154257057Y-118456500D01*
X154409784Y-118415577D01*
X154546716Y-118336520D01*
X154658520Y-118224716D01*
X154674112Y-118197708D01*
X154724679Y-118149493D01*
X154793286Y-118136269D01*
X154858151Y-118162237D01*
X154898680Y-118219150D01*
X154905500Y-118259708D01*
X154905500Y-119021902D01*
X154885815Y-119088941D01*
X154869181Y-119109583D01*
X154825481Y-119153282D01*
X154825477Y-119153287D01*
X154743372Y-119295500D01*
X154692806Y-119343715D01*
X154635985Y-119357500D01*
X153257024Y-119357500D01*
X153236155Y-119363091D01*
X153236156Y-119363092D01*
X153117014Y-119395016D01*
X152991486Y-119467489D01*
X152991483Y-119467491D01*
X152887794Y-119571181D01*
X152826471Y-119604666D01*
X152800113Y-119607500D01*
X152462730Y-119607500D01*
X152432300Y-119610353D01*
X152432298Y-119610353D01*
X152304119Y-119655206D01*
X152304117Y-119655207D01*
X152194850Y-119735850D01*
X152114207Y-119845117D01*
X152114206Y-119845119D01*
X152069353Y-119973298D01*
X152069353Y-119973300D01*
X152066500Y-120003730D01*
X152066500Y-120412269D01*
X152069353Y-120442699D01*
X152070964Y-120450073D01*
X152068528Y-120450604D01*
X152071465Y-120508378D01*
X152038551Y-120567208D01*
X151999321Y-120606439D01*
X151999313Y-120606449D01*
X151915718Y-120747801D01*
X151869899Y-120905513D01*
X151869704Y-120907998D01*
X151869705Y-120908000D01*
X152905500Y-120908000D01*
X152972539Y-120927685D01*
X153018294Y-120980489D01*
X153029500Y-121032000D01*
X153029500Y-121284000D01*
X153009815Y-121351039D01*
X152957011Y-121396794D01*
X152905500Y-121408000D01*
X151869705Y-121408000D01*
X151869704Y-121408001D01*
X151869899Y-121410486D01*
X151915718Y-121568198D01*
X151999314Y-121709552D01*
X151999321Y-121709561D01*
X152038549Y-121748788D01*
X152072035Y-121810111D01*
X152068648Y-121865424D01*
X152070964Y-121865930D01*
X152069353Y-121873305D01*
X152066500Y-121903730D01*
X152066500Y-122312269D01*
X152069353Y-122342699D01*
X152069353Y-122342701D01*
X152112700Y-122466576D01*
X152114207Y-122470882D01*
X152194850Y-122580150D01*
X152304118Y-122660793D01*
X152346845Y-122675744D01*
X152432299Y-122705646D01*
X152462730Y-122708500D01*
X152462734Y-122708500D01*
X153330778Y-122708500D01*
X153397817Y-122728185D01*
X153443572Y-122780989D01*
X153453516Y-122850147D01*
X153446278Y-122877620D01*
X153442861Y-122886365D01*
X153438793Y-122893412D01*
X153437698Y-122897500D01*
X153435922Y-122904127D01*
X153435920Y-122904133D01*
X153411500Y-122995273D01*
X153411500Y-123495984D01*
X153391815Y-123563023D01*
X153375181Y-123583665D01*
X153349522Y-123609323D01*
X153349520Y-123609326D01*
X153296791Y-123700653D01*
X153279420Y-123765488D01*
X153269500Y-123802510D01*
X153269500Y-123802512D01*
X153269500Y-125086273D01*
X153269500Y-125191727D01*
X153270206Y-125194361D01*
X153296793Y-125293589D01*
X153313479Y-125322489D01*
X153349520Y-125384913D01*
X153349522Y-125384915D01*
X154712381Y-126747774D01*
X154745866Y-126809097D01*
X154740882Y-126878789D01*
X154740055Y-126880945D01*
X154682882Y-127025924D01*
X154682882Y-127025925D01*
X154672500Y-127112381D01*
X154672500Y-127696618D01*
X154682882Y-127783074D01*
X154682882Y-127783075D01*
X154709471Y-127850500D01*
X154732185Y-127908099D01*
X154737139Y-127920660D01*
X154826499Y-128038500D01*
X154944339Y-128127860D01*
X154944342Y-128127862D01*
X155081923Y-128182117D01*
X155139562Y-128189039D01*
X155168381Y-128192500D01*
X155168382Y-128192500D01*
X155727619Y-128192500D01*
X155749232Y-128189904D01*
X155814077Y-128182117D01*
X155951658Y-128127862D01*
X156069500Y-128038500D01*
X156158862Y-127920658D01*
X156213117Y-127783077D01*
X156223500Y-127696618D01*
X156223500Y-127112382D01*
X156213117Y-127025923D01*
X156158862Y-126888342D01*
X156151618Y-126878789D01*
X156069500Y-126770499D01*
X155951660Y-126681139D01*
X155951658Y-126681138D01*
X155827588Y-126632211D01*
X155814075Y-126626882D01*
X155754592Y-126619739D01*
X155732956Y-126610460D01*
X155709951Y-126605456D01*
X155694748Y-126594075D01*
X155690378Y-126592201D01*
X155681697Y-126584305D01*
X155673440Y-126576048D01*
X155639955Y-126514725D01*
X155644939Y-126445033D01*
X155686811Y-126389100D01*
X155746335Y-126365252D01*
X155814077Y-126357117D01*
X155951658Y-126302862D01*
X156069500Y-126213500D01*
X156158862Y-126095658D01*
X156213117Y-125958077D01*
X156223500Y-125871618D01*
X156223500Y-125287382D01*
X156213117Y-125200923D01*
X156158862Y-125063342D01*
X156149143Y-125050525D01*
X156069500Y-124945499D01*
X155951657Y-124856137D01*
X155927009Y-124846417D01*
X155871866Y-124803511D01*
X155848673Y-124737603D01*
X155848500Y-124731063D01*
X155848500Y-124153275D01*
X155848500Y-124153273D01*
X155821207Y-124051413D01*
X155768480Y-123960087D01*
X155761606Y-123953213D01*
X155728121Y-123891890D01*
X155727670Y-123841339D01*
X155730324Y-123828000D01*
X155740500Y-123776842D01*
X155740500Y-123619158D01*
X155738544Y-123609326D01*
X155727670Y-123554660D01*
X155728377Y-123546751D01*
X155725603Y-123539312D01*
X155731447Y-123512447D01*
X155733897Y-123485068D01*
X155739145Y-123477059D01*
X155740455Y-123471039D01*
X155761606Y-123442785D01*
X155791975Y-123412417D01*
X155831574Y-123372818D01*
X155892898Y-123339334D01*
X155919255Y-123336500D01*
X156379847Y-123336500D01*
X156446886Y-123356185D01*
X156492641Y-123408989D01*
X156502585Y-123478147D01*
X156501420Y-123484589D01*
X156498500Y-123515730D01*
X156498500Y-125274269D01*
X156501353Y-125304699D01*
X156501353Y-125304701D01*
X156546206Y-125432881D01*
X156546207Y-125432882D01*
X156547266Y-125434317D01*
X156547939Y-125436160D01*
X156550551Y-125441102D01*
X156549875Y-125441459D01*
X156571241Y-125499945D01*
X156571500Y-125507956D01*
X156571500Y-126798726D01*
X156598793Y-126900589D01*
X156617024Y-126932165D01*
X156651520Y-126991913D01*
X156651522Y-126991915D01*
X156658393Y-126998786D01*
X156691878Y-127060109D01*
X156692329Y-127110658D01*
X156679500Y-127175153D01*
X156679500Y-127332846D01*
X156710261Y-127487489D01*
X156710264Y-127487501D01*
X156770602Y-127633172D01*
X156770609Y-127633185D01*
X156858210Y-127764288D01*
X156858213Y-127764292D01*
X156969707Y-127875786D01*
X156969711Y-127875789D01*
X157100814Y-127963390D01*
X157100827Y-127963397D01*
X157208510Y-128008000D01*
X157246503Y-128023737D01*
X157401153Y-128054499D01*
X157401156Y-128054500D01*
X157401158Y-128054500D01*
X157558844Y-128054500D01*
X157558845Y-128054499D01*
X157713497Y-128023737D01*
X157859179Y-127963394D01*
X157990289Y-127875789D01*
X158101789Y-127764289D01*
X158189394Y-127633179D01*
X158249737Y-127487497D01*
X158280500Y-127332842D01*
X158280500Y-127175158D01*
X158280500Y-127175155D01*
X158280499Y-127175153D01*
X158267670Y-127110658D01*
X158249737Y-127020503D01*
X158227554Y-126966947D01*
X158189397Y-126874827D01*
X158189390Y-126874814D01*
X158101789Y-126743711D01*
X158101786Y-126743707D01*
X157990292Y-126632213D01*
X157990288Y-126632210D01*
X157859185Y-126544609D01*
X157859172Y-126544602D01*
X157713501Y-126484264D01*
X157713489Y-126484261D01*
X157558845Y-126453500D01*
X157558842Y-126453500D01*
X157496500Y-126453500D01*
X157429461Y-126433815D01*
X157383706Y-126381011D01*
X157372500Y-126329500D01*
X157372500Y-125742051D01*
X157392185Y-125675012D01*
X157444989Y-125629257D01*
X157455542Y-125625011D01*
X157461882Y-125622793D01*
X157571150Y-125542150D01*
X157634231Y-125456677D01*
X157689877Y-125414428D01*
X157759533Y-125408969D01*
X157821083Y-125442036D01*
X157833763Y-125456670D01*
X157871614Y-125507956D01*
X157896850Y-125542150D01*
X158006118Y-125622793D01*
X158006120Y-125622794D01*
X158012445Y-125625007D01*
X158087514Y-125651274D01*
X158134242Y-125680635D01*
X158683518Y-126229910D01*
X158683520Y-126229913D01*
X158758087Y-126304480D01*
X158829136Y-126345500D01*
X158837102Y-126350099D01*
X158849411Y-126357206D01*
X158849412Y-126357206D01*
X158849413Y-126357207D01*
X158951273Y-126384501D01*
X158951275Y-126384501D01*
X159064323Y-126384501D01*
X159064339Y-126384500D01*
X159321769Y-126384500D01*
X159388808Y-126404185D01*
X159434563Y-126456989D01*
X159444507Y-126526147D01*
X159440187Y-126543070D01*
X159438401Y-126550627D01*
X159432000Y-126610155D01*
X159432000Y-127258000D01*
X160348988Y-127258000D01*
X160316075Y-127315007D01*
X160282000Y-127442174D01*
X160282000Y-127573826D01*
X160316075Y-127700993D01*
X160348988Y-127758000D01*
X159432000Y-127758000D01*
X159432000Y-128405844D01*
X159438401Y-128465372D01*
X159438403Y-128465379D01*
X159488645Y-128600086D01*
X159488649Y-128600093D01*
X159556844Y-128691189D01*
X159581262Y-128756653D01*
X159566411Y-128824926D01*
X159517006Y-128874332D01*
X159457578Y-128889500D01*
X133174500Y-128889500D01*
X133107461Y-128869815D01*
X133061706Y-128817011D01*
X133050500Y-128765500D01*
X133050500Y-126558205D01*
X133070185Y-126491166D01*
X133122989Y-126445411D01*
X133192147Y-126435467D01*
X133243391Y-126455103D01*
X133300856Y-126493500D01*
X133300865Y-126493505D01*
X133316241Y-126499874D01*
X133457245Y-126558280D01*
X133623255Y-126591301D01*
X133623259Y-126591302D01*
X133623260Y-126591302D01*
X134376729Y-126591302D01*
X134376730Y-126591301D01*
X134542743Y-126558280D01*
X134699125Y-126493504D01*
X134839866Y-126399464D01*
X134959556Y-126279774D01*
X135053596Y-126139033D01*
X135118372Y-125982651D01*
X135151394Y-125816636D01*
X135151394Y-125647368D01*
X135151393Y-125647363D01*
X136648600Y-125647363D01*
X136648600Y-125816640D01*
X136681620Y-125982643D01*
X136681622Y-125982651D01*
X136746396Y-126139030D01*
X136746401Y-126139039D01*
X136840437Y-126279773D01*
X136840440Y-126279777D01*
X136960124Y-126399461D01*
X136960128Y-126399464D01*
X137100862Y-126493500D01*
X137100871Y-126493505D01*
X137116247Y-126499874D01*
X137257251Y-126558280D01*
X137423261Y-126591301D01*
X137423265Y-126591302D01*
X137423266Y-126591302D01*
X138176735Y-126591302D01*
X138176736Y-126591301D01*
X138342749Y-126558280D01*
X138499131Y-126493504D01*
X138588703Y-126433654D01*
X148123001Y-126433654D01*
X148133319Y-126534652D01*
X148187546Y-126698300D01*
X148187551Y-126698311D01*
X148278052Y-126845034D01*
X148278055Y-126845038D01*
X148399961Y-126966944D01*
X148399965Y-126966947D01*
X148546688Y-127057448D01*
X148546699Y-127057453D01*
X148710347Y-127111680D01*
X148811352Y-127121999D01*
X148848000Y-127121999D01*
X149348000Y-127121999D01*
X149384640Y-127121999D01*
X149384654Y-127121998D01*
X149485652Y-127111680D01*
X149649300Y-127057453D01*
X149649307Y-127057450D01*
X149794902Y-126967645D01*
X149862295Y-126949204D01*
X149925098Y-126967645D01*
X150070692Y-127057450D01*
X150070699Y-127057453D01*
X150234347Y-127111680D01*
X150335352Y-127121999D01*
X150372000Y-127121999D01*
X150872000Y-127121999D01*
X150908640Y-127121999D01*
X150908654Y-127121998D01*
X151009652Y-127111680D01*
X151173300Y-127057453D01*
X151173311Y-127057448D01*
X151320034Y-126966947D01*
X151320038Y-126966944D01*
X151441944Y-126845038D01*
X151441947Y-126845034D01*
X151532448Y-126698311D01*
X151532453Y-126698300D01*
X151586680Y-126534652D01*
X151596999Y-126433654D01*
X151597000Y-126433641D01*
X151597000Y-126384500D01*
X150872000Y-126384500D01*
X150872000Y-127121999D01*
X150372000Y-127121999D01*
X150372000Y-126384500D01*
X149618362Y-126384500D01*
X149551323Y-126364815D01*
X149530681Y-126348181D01*
X149517000Y-126334500D01*
X149348000Y-126334500D01*
X149348000Y-127121999D01*
X148848000Y-127121999D01*
X148848000Y-126334500D01*
X148123001Y-126334500D01*
X148123001Y-126433654D01*
X138588703Y-126433654D01*
X138639872Y-126399464D01*
X138759562Y-126279774D01*
X138853602Y-126139033D01*
X138918378Y-125982651D01*
X138951400Y-125816636D01*
X138951400Y-125647368D01*
X138918378Y-125481353D01*
X138853602Y-125324971D01*
X138853601Y-125324970D01*
X138853598Y-125324964D01*
X138759562Y-125184230D01*
X138759559Y-125184226D01*
X138639875Y-125064542D01*
X138639871Y-125064539D01*
X138499137Y-124970503D01*
X138499128Y-124970498D01*
X138342749Y-124905724D01*
X138342741Y-124905722D01*
X138176738Y-124872702D01*
X138176734Y-124872702D01*
X137423266Y-124872702D01*
X137423261Y-124872702D01*
X137257258Y-124905722D01*
X137257250Y-124905724D01*
X137100871Y-124970498D01*
X137100862Y-124970503D01*
X136960128Y-125064539D01*
X136960124Y-125064542D01*
X136840440Y-125184226D01*
X136840437Y-125184230D01*
X136746401Y-125324964D01*
X136746396Y-125324973D01*
X136681622Y-125481352D01*
X136681620Y-125481360D01*
X136648600Y-125647363D01*
X135151393Y-125647363D01*
X135118372Y-125481353D01*
X135053596Y-125324971D01*
X135053595Y-125324970D01*
X135053592Y-125324964D01*
X134959556Y-125184230D01*
X134959553Y-125184226D01*
X134839869Y-125064542D01*
X134839865Y-125064539D01*
X134699131Y-124970503D01*
X134699122Y-124970498D01*
X134542743Y-124905724D01*
X134542735Y-124905722D01*
X134376732Y-124872702D01*
X134376728Y-124872702D01*
X133623260Y-124872702D01*
X133623255Y-124872702D01*
X133457252Y-124905722D01*
X133457244Y-124905724D01*
X133300865Y-124970498D01*
X133300858Y-124970502D01*
X133243390Y-125008901D01*
X133176712Y-125029778D01*
X133109332Y-125011293D01*
X133062643Y-124959313D01*
X133050500Y-124905798D01*
X133050500Y-122799986D01*
X134300001Y-122799986D01*
X134310494Y-122902697D01*
X134365641Y-123069119D01*
X134365643Y-123069124D01*
X134457684Y-123218345D01*
X134581654Y-123342315D01*
X134730875Y-123434356D01*
X134730880Y-123434358D01*
X134897302Y-123489505D01*
X134897309Y-123489506D01*
X135000019Y-123499999D01*
X135549999Y-123499999D01*
X136050000Y-123499999D01*
X136599972Y-123499999D01*
X136599986Y-123499998D01*
X136702697Y-123489505D01*
X136869119Y-123434358D01*
X136869124Y-123434356D01*
X137018345Y-123342315D01*
X137142315Y-123218345D01*
X137234356Y-123069124D01*
X137234358Y-123069119D01*
X137289505Y-122902697D01*
X137289506Y-122902690D01*
X137299999Y-122799986D01*
X137300000Y-122799973D01*
X137300000Y-122750000D01*
X136050000Y-122750000D01*
X136050000Y-123499999D01*
X135549999Y-123499999D01*
X135550000Y-123499998D01*
X135550000Y-122750000D01*
X134300001Y-122750000D01*
X134300001Y-122799986D01*
X133050500Y-122799986D01*
X133050500Y-122200013D01*
X134300000Y-122200013D01*
X134300000Y-122250000D01*
X135550000Y-122250000D01*
X136050000Y-122250000D01*
X137299999Y-122250000D01*
X137299999Y-122200028D01*
X137299998Y-122200013D01*
X137289505Y-122097302D01*
X137234358Y-121930880D01*
X137234356Y-121930875D01*
X137142315Y-121781654D01*
X137018345Y-121657684D01*
X136869124Y-121565643D01*
X136869119Y-121565641D01*
X136702697Y-121510494D01*
X136702690Y-121510493D01*
X136599986Y-121500000D01*
X136050000Y-121500000D01*
X136050000Y-122250000D01*
X135550000Y-122250000D01*
X135550000Y-121500000D01*
X135000028Y-121500000D01*
X135000012Y-121500001D01*
X134897302Y-121510494D01*
X134730880Y-121565641D01*
X134730875Y-121565643D01*
X134581654Y-121657684D01*
X134457684Y-121781654D01*
X134365643Y-121930875D01*
X134365641Y-121930880D01*
X134310494Y-122097302D01*
X134310493Y-122097309D01*
X134300000Y-122200013D01*
X133050500Y-122200013D01*
X133050500Y-120106898D01*
X134399500Y-120106898D01*
X134399500Y-120693102D01*
X134402790Y-120720500D01*
X134410122Y-120781561D01*
X134410122Y-120781563D01*
X134410123Y-120781564D01*
X134414088Y-120791618D01*
X134465639Y-120922343D01*
X134557077Y-121042922D01*
X134677656Y-121134360D01*
X134677657Y-121134360D01*
X134677658Y-121134361D01*
X134818436Y-121189877D01*
X134906898Y-121200500D01*
X134906903Y-121200500D01*
X136493097Y-121200500D01*
X136493102Y-121200500D01*
X136581564Y-121189877D01*
X136722342Y-121134361D01*
X136842922Y-121042922D01*
X136934361Y-120922342D01*
X136943956Y-120898008D01*
X136986862Y-120842866D01*
X137052770Y-120819673D01*
X137059311Y-120819500D01*
X139547613Y-120819500D01*
X139614652Y-120839185D01*
X139635294Y-120855819D01*
X140549294Y-121769819D01*
X140582779Y-121831142D01*
X140577795Y-121900834D01*
X140535923Y-121956767D01*
X140470459Y-121981184D01*
X140461613Y-121981500D01*
X140393005Y-121981500D01*
X140257677Y-122008418D01*
X140257667Y-122008421D01*
X140130195Y-122061221D01*
X140130182Y-122061228D01*
X140015458Y-122137885D01*
X140015454Y-122137888D01*
X139917888Y-122235454D01*
X139917885Y-122235458D01*
X139841228Y-122350182D01*
X139841221Y-122350195D01*
X139788421Y-122477667D01*
X139788418Y-122477677D01*
X139761500Y-122613004D01*
X139761500Y-122613007D01*
X139761500Y-122750993D01*
X139761500Y-122750995D01*
X139761499Y-122750995D01*
X139788418Y-122886322D01*
X139788421Y-122886332D01*
X139841221Y-123013804D01*
X139841228Y-123013817D01*
X139917885Y-123128541D01*
X139917888Y-123128545D01*
X140015454Y-123226111D01*
X140015458Y-123226114D01*
X140130182Y-123302771D01*
X140130195Y-123302778D01*
X140225647Y-123342315D01*
X140257672Y-123355580D01*
X140257676Y-123355580D01*
X140257677Y-123355581D01*
X140393004Y-123382500D01*
X140393007Y-123382500D01*
X140530995Y-123382500D01*
X140631373Y-123362533D01*
X140666328Y-123355580D01*
X140793811Y-123302775D01*
X140793816Y-123302771D01*
X140793819Y-123302770D01*
X140826608Y-123280861D01*
X140893285Y-123259982D01*
X140960665Y-123278466D01*
X141007356Y-123330444D01*
X141019500Y-123383962D01*
X141019500Y-124415602D01*
X141023831Y-124451668D01*
X141030122Y-124504061D01*
X141085639Y-124644843D01*
X141177077Y-124765422D01*
X141297656Y-124856860D01*
X141297657Y-124856860D01*
X141297658Y-124856861D01*
X141438436Y-124912377D01*
X141526898Y-124923000D01*
X141526903Y-124923000D01*
X142913097Y-124923000D01*
X142913102Y-124923000D01*
X143001564Y-124912377D01*
X143142342Y-124856861D01*
X143262922Y-124765422D01*
X143354361Y-124644842D01*
X143409877Y-124504064D01*
X143420500Y-124415602D01*
X143420500Y-124320887D01*
X143440185Y-124253848D01*
X143492989Y-124208093D01*
X143562147Y-124198149D01*
X143625703Y-124227174D01*
X143632181Y-124233206D01*
X144413181Y-125014206D01*
X144446666Y-125075529D01*
X144449500Y-125101887D01*
X144449500Y-125339618D01*
X144459882Y-125426074D01*
X144459882Y-125426075D01*
X144470836Y-125453853D01*
X144508916Y-125550417D01*
X144514139Y-125563660D01*
X144603499Y-125681500D01*
X144709832Y-125762134D01*
X144721342Y-125770862D01*
X144858923Y-125825117D01*
X144916562Y-125832039D01*
X144945381Y-125835500D01*
X144945382Y-125835500D01*
X145529619Y-125835500D01*
X145551232Y-125832904D01*
X145616077Y-125825117D01*
X145753658Y-125770862D01*
X145871500Y-125681500D01*
X145960862Y-125563658D01*
X146015117Y-125426077D01*
X146025500Y-125339618D01*
X146025500Y-124780382D01*
X146015117Y-124693923D01*
X145960862Y-124556342D01*
X145953985Y-124547273D01*
X145871500Y-124438499D01*
X145753660Y-124349139D01*
X145753658Y-124349138D01*
X145616077Y-124294883D01*
X145616076Y-124294882D01*
X145616074Y-124294882D01*
X145529619Y-124284500D01*
X145529618Y-124284500D01*
X145291887Y-124284500D01*
X145224848Y-124264815D01*
X145204206Y-124248181D01*
X143906173Y-122950148D01*
X143872688Y-122888825D01*
X143877672Y-122819133D01*
X143919544Y-122763200D01*
X143961754Y-122742695D01*
X143995784Y-122733577D01*
X144132716Y-122654520D01*
X144176417Y-122610819D01*
X144203344Y-122596115D01*
X144229163Y-122579523D01*
X144235363Y-122578631D01*
X144237740Y-122577334D01*
X144264098Y-122574500D01*
X144335150Y-122574500D01*
X144402189Y-122594185D01*
X144447944Y-122646989D01*
X144450491Y-122652978D01*
X144494138Y-122763658D01*
X144494139Y-122763660D01*
X144583499Y-122881500D01*
X144701339Y-122970860D01*
X144701342Y-122970862D01*
X144838923Y-123025117D01*
X144890534Y-123031315D01*
X144925381Y-123035500D01*
X144925382Y-123035500D01*
X145509619Y-123035500D01*
X145544466Y-123031315D01*
X145596077Y-123025117D01*
X145733658Y-122970862D01*
X145851500Y-122881500D01*
X145898794Y-122819133D01*
X145913850Y-122799279D01*
X145970042Y-122757756D01*
X146039763Y-122753204D01*
X146100878Y-122787068D01*
X146118192Y-122809107D01*
X146210052Y-122958034D01*
X146210055Y-122958038D01*
X146331961Y-123079944D01*
X146331965Y-123079947D01*
X146478688Y-123170448D01*
X146478699Y-123170453D01*
X146642347Y-123224680D01*
X146743351Y-123234999D01*
X147292500Y-123234999D01*
X147341640Y-123234999D01*
X147341654Y-123234998D01*
X147442652Y-123224680D01*
X147606300Y-123170453D01*
X147606311Y-123170448D01*
X147753034Y-123079947D01*
X147753038Y-123079944D01*
X147874944Y-122958038D01*
X147874947Y-122958034D01*
X147965448Y-122811311D01*
X147965453Y-122811300D01*
X148019680Y-122647652D01*
X148029999Y-122546654D01*
X148030000Y-122546641D01*
X148030000Y-122510000D01*
X147292500Y-122510000D01*
X147292500Y-123234999D01*
X146743351Y-123234999D01*
X146792499Y-123234998D01*
X146792500Y-123234998D01*
X146792500Y-122010000D01*
X147292500Y-122010000D01*
X148029999Y-122010000D01*
X148029999Y-121973360D01*
X148029998Y-121973345D01*
X148019680Y-121872347D01*
X147965453Y-121708699D01*
X147965448Y-121708688D01*
X147874947Y-121561965D01*
X147874944Y-121561961D01*
X147795664Y-121482681D01*
X147762179Y-121421358D01*
X147767163Y-121351666D01*
X147795664Y-121307319D01*
X147874944Y-121228038D01*
X147874947Y-121228034D01*
X147965448Y-121081311D01*
X147965453Y-121081300D01*
X148019680Y-120917652D01*
X148029999Y-120816654D01*
X148030000Y-120816641D01*
X148030000Y-120780000D01*
X147292500Y-120780000D01*
X147292500Y-122010000D01*
X146792500Y-122010000D01*
X146792500Y-120280000D01*
X147292500Y-120280000D01*
X148029999Y-120280000D01*
X148029999Y-120243360D01*
X148029998Y-120243345D01*
X148019680Y-120142347D01*
X147965453Y-119978699D01*
X147965448Y-119978688D01*
X147874947Y-119831965D01*
X147874944Y-119831961D01*
X147753038Y-119710055D01*
X147753034Y-119710052D01*
X147606311Y-119619551D01*
X147606300Y-119619546D01*
X147442652Y-119565319D01*
X147341654Y-119555000D01*
X147292500Y-119555000D01*
X147292500Y-120280000D01*
X146792500Y-120280000D01*
X146792500Y-119555000D01*
X146792499Y-119554999D01*
X146743361Y-119555000D01*
X146743343Y-119555001D01*
X146642347Y-119565319D01*
X146478699Y-119619546D01*
X146478688Y-119619551D01*
X146331965Y-119710052D01*
X146331961Y-119710055D01*
X146210054Y-119831962D01*
X146118192Y-119980893D01*
X146066244Y-120027617D01*
X145997281Y-120038838D01*
X145933199Y-120010995D01*
X145913850Y-119990720D01*
X145851500Y-119908499D01*
X145733660Y-119819139D01*
X145733658Y-119819138D01*
X145596077Y-119764883D01*
X145596076Y-119764882D01*
X145596074Y-119764882D01*
X145509619Y-119754500D01*
X145509618Y-119754500D01*
X144925382Y-119754500D01*
X144925381Y-119754500D01*
X144838925Y-119764882D01*
X144838924Y-119764882D01*
X144701339Y-119819139D01*
X144583499Y-119908499D01*
X144494139Y-120026339D01*
X144439882Y-120163924D01*
X144439882Y-120163925D01*
X144429500Y-120250381D01*
X144429500Y-120633500D01*
X144409815Y-120700539D01*
X144357011Y-120746294D01*
X144305500Y-120757500D01*
X144010098Y-120757500D01*
X143943059Y-120737815D01*
X143922417Y-120721181D01*
X143878717Y-120677481D01*
X143878709Y-120677475D01*
X143741790Y-120598426D01*
X143741786Y-120598424D01*
X143741784Y-120598423D01*
X143741782Y-120598422D01*
X143741779Y-120598421D01*
X143707743Y-120589301D01*
X143648083Y-120552936D01*
X143617555Y-120490088D01*
X143616480Y-120456921D01*
X143619999Y-120422478D01*
X143620000Y-120422473D01*
X143620000Y-119622500D01*
X142470000Y-119622500D01*
X142470000Y-121122499D01*
X142785673Y-121122499D01*
X142852712Y-121142184D01*
X142898467Y-121194988D01*
X142908612Y-121230310D01*
X142909500Y-121237057D01*
X142944758Y-121368643D01*
X142950423Y-121389783D01*
X142950426Y-121389790D01*
X143029475Y-121526709D01*
X143029481Y-121526717D01*
X143130799Y-121628035D01*
X143164284Y-121689358D01*
X143159300Y-121759050D01*
X143117428Y-121814983D01*
X143051964Y-121839400D01*
X143009684Y-121832921D01*
X143009268Y-121834570D01*
X143001567Y-121832623D01*
X142968390Y-121828639D01*
X142913102Y-121822000D01*
X142913097Y-121822000D01*
X142209887Y-121822000D01*
X142142848Y-121802315D01*
X142122206Y-121785681D01*
X141670705Y-121334180D01*
X141637220Y-121272857D01*
X141642204Y-121203165D01*
X141684076Y-121147232D01*
X141749540Y-121122815D01*
X141758386Y-121122499D01*
X141969999Y-121122499D01*
X141970000Y-121122498D01*
X141970000Y-119622500D01*
X140820001Y-119622500D01*
X140820001Y-119717982D01*
X140800316Y-119785021D01*
X140747512Y-119830776D01*
X140678354Y-119840720D01*
X140614798Y-119811695D01*
X140608320Y-119805663D01*
X140527545Y-119724888D01*
X140527541Y-119724885D01*
X140412817Y-119648228D01*
X140412804Y-119648221D01*
X140285332Y-119595421D01*
X140285322Y-119595418D01*
X140149995Y-119568500D01*
X140149993Y-119568500D01*
X140012007Y-119568500D01*
X140012005Y-119568500D01*
X139876677Y-119595418D01*
X139876667Y-119595421D01*
X139749195Y-119648221D01*
X139749183Y-119648228D01*
X139675291Y-119697602D01*
X139608614Y-119718480D01*
X139606400Y-119718500D01*
X136833748Y-119718500D01*
X136766709Y-119698815D01*
X136758834Y-119693312D01*
X136722342Y-119665639D01*
X136722341Y-119665638D01*
X136612950Y-119622500D01*
X136581564Y-119610123D01*
X136581563Y-119610122D01*
X136581561Y-119610122D01*
X136535926Y-119604642D01*
X136493102Y-119599500D01*
X134906898Y-119599500D01*
X134867853Y-119604188D01*
X134818438Y-119610122D01*
X134677656Y-119665639D01*
X134557077Y-119757077D01*
X134465639Y-119877656D01*
X134410122Y-120018438D01*
X134405514Y-120056814D01*
X134399500Y-120106898D01*
X133050500Y-120106898D01*
X133050500Y-118322513D01*
X140820000Y-118322513D01*
X140820000Y-119122500D01*
X141970000Y-119122500D01*
X142470000Y-119122500D01*
X143619999Y-119122500D01*
X143619999Y-118322528D01*
X143619998Y-118322513D01*
X143609505Y-118219802D01*
X143554358Y-118053380D01*
X143554356Y-118053375D01*
X143462315Y-117904154D01*
X143338345Y-117780184D01*
X143189124Y-117688143D01*
X143189119Y-117688141D01*
X143022697Y-117632994D01*
X143022690Y-117632993D01*
X142919986Y-117622500D01*
X142470000Y-117622500D01*
X142470000Y-119122500D01*
X141970000Y-119122500D01*
X141970000Y-117622500D01*
X141520028Y-117622500D01*
X141520012Y-117622501D01*
X141417302Y-117632994D01*
X141250880Y-117688141D01*
X141250875Y-117688143D01*
X141101654Y-117780184D01*
X140977684Y-117904154D01*
X140885643Y-118053375D01*
X140885641Y-118053380D01*
X140830494Y-118219802D01*
X140830493Y-118219809D01*
X140820000Y-118322513D01*
X133050500Y-118322513D01*
X133050500Y-117918201D01*
X133070185Y-117851162D01*
X133122989Y-117805407D01*
X133192147Y-117795463D01*
X133243391Y-117815099D01*
X133300856Y-117853496D01*
X133300862Y-117853499D01*
X133300863Y-117853500D01*
X133457245Y-117918276D01*
X133597907Y-117946255D01*
X133623255Y-117951297D01*
X133623259Y-117951298D01*
X133623260Y-117951298D01*
X134376729Y-117951298D01*
X134376730Y-117951297D01*
X134542743Y-117918276D01*
X134699125Y-117853500D01*
X134839866Y-117759460D01*
X134959556Y-117639770D01*
X135053596Y-117499029D01*
X135118372Y-117342647D01*
X135151394Y-117176632D01*
X135151394Y-117007364D01*
X135151393Y-117007359D01*
X136648600Y-117007359D01*
X136648600Y-117176636D01*
X136681620Y-117342639D01*
X136681622Y-117342647D01*
X136746396Y-117499026D01*
X136746401Y-117499035D01*
X136840437Y-117639769D01*
X136840440Y-117639773D01*
X136960124Y-117759457D01*
X136960128Y-117759460D01*
X137100862Y-117853496D01*
X137100868Y-117853499D01*
X137100869Y-117853500D01*
X137257251Y-117918276D01*
X137397913Y-117946255D01*
X137423261Y-117951297D01*
X137423265Y-117951298D01*
X137423266Y-117951298D01*
X138176735Y-117951298D01*
X138176736Y-117951297D01*
X138342749Y-117918276D01*
X138499131Y-117853500D01*
X138639872Y-117759460D01*
X138759562Y-117639770D01*
X138853602Y-117499029D01*
X138918378Y-117342647D01*
X138951400Y-117176632D01*
X138951400Y-117007364D01*
X138918378Y-116841349D01*
X138853602Y-116684967D01*
X138853601Y-116684966D01*
X138853598Y-116684960D01*
X138759562Y-116544226D01*
X138759559Y-116544222D01*
X138639875Y-116424538D01*
X138639871Y-116424535D01*
X138499137Y-116330499D01*
X138499128Y-116330494D01*
X138342749Y-116265720D01*
X138342741Y-116265718D01*
X138176738Y-116232698D01*
X138176734Y-116232698D01*
X137423266Y-116232698D01*
X137423261Y-116232698D01*
X137257258Y-116265718D01*
X137257250Y-116265720D01*
X137100871Y-116330494D01*
X137100862Y-116330499D01*
X136960128Y-116424535D01*
X136960124Y-116424538D01*
X136840440Y-116544222D01*
X136840437Y-116544226D01*
X136746401Y-116684960D01*
X136746396Y-116684969D01*
X136681622Y-116841348D01*
X136681620Y-116841356D01*
X136648600Y-117007359D01*
X135151393Y-117007359D01*
X135118372Y-116841349D01*
X135053596Y-116684967D01*
X135053595Y-116684966D01*
X135053592Y-116684960D01*
X134959556Y-116544226D01*
X134959553Y-116544222D01*
X134839869Y-116424538D01*
X134839865Y-116424535D01*
X134699131Y-116330499D01*
X134699122Y-116330494D01*
X134542743Y-116265720D01*
X134542735Y-116265718D01*
X134376732Y-116232698D01*
X134376728Y-116232698D01*
X133623260Y-116232698D01*
X133623255Y-116232698D01*
X133457252Y-116265718D01*
X133457244Y-116265720D01*
X133300865Y-116330494D01*
X133300858Y-116330498D01*
X133243390Y-116368897D01*
X133176712Y-116389774D01*
X133109332Y-116371289D01*
X133062643Y-116319309D01*
X133050500Y-116265794D01*
X133050500Y-114014500D01*
X133070185Y-113947461D01*
X133122989Y-113901706D01*
X133174500Y-113890500D01*
X144056166Y-113890500D01*
X144123205Y-113910185D01*
G37*
G04 #@! TD.AperFunction*
G04 #@! TA.AperFunction,Conductor*
G36*
X187992539Y-113910185D02*
G01*
X188038294Y-113962989D01*
X188049500Y-114014500D01*
X188049500Y-128765500D01*
X188029815Y-128832539D01*
X187977011Y-128878294D01*
X187925500Y-128889500D01*
X166069640Y-128889500D01*
X166002601Y-128869815D01*
X165956846Y-128817011D01*
X165946902Y-128747853D01*
X165975927Y-128684297D01*
X166034705Y-128646523D01*
X166050242Y-128643027D01*
X166079041Y-128638465D01*
X166131409Y-128630171D01*
X166303639Y-128574211D01*
X166464994Y-128491996D01*
X166611501Y-128385553D01*
X166739553Y-128257501D01*
X166845996Y-128110994D01*
X166928211Y-127949639D01*
X166984171Y-127777409D01*
X167007016Y-127633172D01*
X167012500Y-127598551D01*
X167012500Y-127417448D01*
X166987245Y-127258000D01*
X166984171Y-127238591D01*
X166941708Y-127107901D01*
X166928212Y-127066363D01*
X166928211Y-127066360D01*
X166897913Y-127006898D01*
X166845996Y-126905006D01*
X166802424Y-126845034D01*
X166739558Y-126758505D01*
X166739554Y-126758500D01*
X166727235Y-126746181D01*
X166693750Y-126684858D01*
X166698734Y-126615166D01*
X166740606Y-126559233D01*
X166806070Y-126534816D01*
X166814916Y-126534500D01*
X167567525Y-126534500D01*
X168204613Y-126534500D01*
X168271652Y-126554185D01*
X168292294Y-126570819D01*
X169961985Y-128240510D01*
X170087515Y-128312984D01*
X170227525Y-128350500D01*
X170227526Y-128350500D01*
X170227528Y-128350500D01*
X176641521Y-128350500D01*
X176641523Y-128350500D01*
X176641524Y-128350500D01*
X176781534Y-128312984D01*
X176907064Y-128240510D01*
X177260755Y-127886819D01*
X177322078Y-127853334D01*
X177348436Y-127850500D01*
X184625403Y-127850500D01*
X184692442Y-127870185D01*
X184724207Y-127899575D01*
X184757077Y-127942922D01*
X184877656Y-128034360D01*
X184877657Y-128034360D01*
X184877658Y-128034361D01*
X185018436Y-128089877D01*
X185106898Y-128100500D01*
X185106903Y-128100500D01*
X186693097Y-128100500D01*
X186693102Y-128100500D01*
X186781564Y-128089877D01*
X186922342Y-128034361D01*
X187042922Y-127942922D01*
X187134361Y-127822342D01*
X187189877Y-127681564D01*
X187200500Y-127593102D01*
X187200500Y-127006898D01*
X187189877Y-126918436D01*
X187134361Y-126777658D01*
X187134360Y-126777657D01*
X187134360Y-126777656D01*
X187042922Y-126657077D01*
X186922343Y-126565639D01*
X186822198Y-126526147D01*
X186781564Y-126510123D01*
X186781563Y-126510122D01*
X186781561Y-126510122D01*
X186735926Y-126504642D01*
X186693102Y-126499500D01*
X185106898Y-126499500D01*
X185073414Y-126503521D01*
X185018438Y-126510122D01*
X184877656Y-126565639D01*
X184757077Y-126657077D01*
X184724207Y-126700425D01*
X184668015Y-126741948D01*
X184625403Y-126749500D01*
X179667283Y-126749500D01*
X179600244Y-126729815D01*
X179554489Y-126677011D01*
X179544545Y-126607853D01*
X179553849Y-126575413D01*
X179561415Y-126558279D01*
X179603135Y-126463791D01*
X179606050Y-126438665D01*
X179606049Y-124748736D01*
X179604758Y-124737603D01*
X179603136Y-124723612D01*
X179603135Y-124723610D01*
X179603135Y-124723609D01*
X179557756Y-124620835D01*
X179478315Y-124541394D01*
X179458109Y-124532472D01*
X179375542Y-124496015D01*
X179350418Y-124493100D01*
X179350415Y-124493100D01*
X179131550Y-124493100D01*
X179122864Y-124490549D01*
X179113903Y-124491838D01*
X179089862Y-124480859D01*
X179064511Y-124473415D01*
X179058583Y-124466574D01*
X179050347Y-124462813D01*
X179036057Y-124440578D01*
X179018756Y-124420611D01*
X179016468Y-124410096D01*
X179012573Y-124404035D01*
X179007550Y-124369100D01*
X179007550Y-124166898D01*
X184599500Y-124166898D01*
X184599500Y-124753102D01*
X184602776Y-124780381D01*
X184610122Y-124841561D01*
X184610122Y-124841563D01*
X184610123Y-124841564D01*
X184622402Y-124872702D01*
X184665639Y-124982343D01*
X184757077Y-125102922D01*
X184877656Y-125194360D01*
X184877657Y-125194360D01*
X184877658Y-125194361D01*
X185018436Y-125249877D01*
X185106898Y-125260500D01*
X185106903Y-125260500D01*
X186693097Y-125260500D01*
X186693102Y-125260500D01*
X186781564Y-125249877D01*
X186922342Y-125194361D01*
X187042922Y-125102922D01*
X187134361Y-124982342D01*
X187189877Y-124841564D01*
X187200500Y-124753102D01*
X187200500Y-124698079D01*
X187204725Y-124665986D01*
X187205612Y-124662677D01*
X187240499Y-124532474D01*
X187240499Y-124387526D01*
X187209277Y-124271000D01*
X187204725Y-124254011D01*
X187200500Y-124221919D01*
X187200500Y-124166903D01*
X187200500Y-124166898D01*
X187189877Y-124078436D01*
X187134361Y-123937658D01*
X187134360Y-123937657D01*
X187134360Y-123937656D01*
X187042925Y-123817082D01*
X187042922Y-123817078D01*
X187042580Y-123816818D01*
X187035570Y-123811502D01*
X186994049Y-123755308D01*
X186986500Y-123712702D01*
X186986500Y-123073929D01*
X187006185Y-123006890D01*
X187035572Y-122975127D01*
X187057500Y-122958500D01*
X187146862Y-122840658D01*
X187201117Y-122703077D01*
X187211500Y-122616618D01*
X187211500Y-122032382D01*
X187208622Y-122008421D01*
X187205389Y-121981500D01*
X187201117Y-121945923D01*
X187146862Y-121808342D01*
X187142292Y-121802315D01*
X187057500Y-121690499D01*
X186939660Y-121601139D01*
X186939658Y-121601138D01*
X186802077Y-121546883D01*
X186802076Y-121546882D01*
X186802074Y-121546882D01*
X186715619Y-121536500D01*
X186715618Y-121536500D01*
X186156382Y-121536500D01*
X186156381Y-121536500D01*
X186069925Y-121546882D01*
X186069924Y-121546882D01*
X185932339Y-121601139D01*
X185814499Y-121690499D01*
X185725139Y-121808339D01*
X185670882Y-121945924D01*
X185670882Y-121945925D01*
X185660500Y-122032381D01*
X185660500Y-122616618D01*
X185670882Y-122703074D01*
X185670882Y-122703075D01*
X185680784Y-122728185D01*
X185723949Y-122837644D01*
X185725139Y-122840660D01*
X185814496Y-122958495D01*
X185814500Y-122958500D01*
X185836425Y-122975126D01*
X185877948Y-123031315D01*
X185885500Y-123073929D01*
X185885500Y-123535500D01*
X185865815Y-123602539D01*
X185813011Y-123648294D01*
X185761500Y-123659500D01*
X185106898Y-123659500D01*
X185067853Y-123664188D01*
X185018438Y-123670122D01*
X184877656Y-123725639D01*
X184757077Y-123817077D01*
X184665639Y-123937656D01*
X184610122Y-124078438D01*
X184606818Y-124105954D01*
X184599500Y-124166898D01*
X179007550Y-124166898D01*
X179007550Y-122899986D01*
X182400001Y-122899986D01*
X182410494Y-123002697D01*
X182465641Y-123169119D01*
X182465643Y-123169124D01*
X182557684Y-123318345D01*
X182681654Y-123442315D01*
X182830875Y-123534356D01*
X182830880Y-123534358D01*
X182997302Y-123589505D01*
X182997309Y-123589506D01*
X183100019Y-123599999D01*
X183650000Y-123599999D01*
X183699972Y-123599999D01*
X183699986Y-123599998D01*
X183802697Y-123589505D01*
X183969119Y-123534358D01*
X183969124Y-123534356D01*
X184118345Y-123442315D01*
X184242315Y-123318345D01*
X184334356Y-123169124D01*
X184334358Y-123169119D01*
X184389505Y-123002697D01*
X184389506Y-123002690D01*
X184399999Y-122899986D01*
X184400000Y-122899973D01*
X184400000Y-122350000D01*
X183650000Y-122350000D01*
X183650000Y-123599999D01*
X183100019Y-123599999D01*
X183149999Y-123599998D01*
X183150000Y-123599998D01*
X183150000Y-122350000D01*
X182400001Y-122350000D01*
X182400001Y-122899986D01*
X179007550Y-122899986D01*
X179007550Y-121300013D01*
X182400000Y-121300013D01*
X182400000Y-121850000D01*
X183150000Y-121850000D01*
X183650000Y-121850000D01*
X184399999Y-121850000D01*
X184399999Y-121300028D01*
X184399998Y-121300013D01*
X184389505Y-121197302D01*
X184334358Y-121030880D01*
X184334356Y-121030875D01*
X184242315Y-120881654D01*
X184118345Y-120757684D01*
X183969124Y-120665643D01*
X183969119Y-120665641D01*
X183802697Y-120610494D01*
X183802690Y-120610493D01*
X183699986Y-120600000D01*
X183650000Y-120600000D01*
X183650000Y-121850000D01*
X183150000Y-121850000D01*
X183150000Y-120600000D01*
X183149999Y-120599999D01*
X183100029Y-120600000D01*
X183100011Y-120600001D01*
X182997302Y-120610494D01*
X182830880Y-120665641D01*
X182830875Y-120665643D01*
X182681654Y-120757684D01*
X182557684Y-120881654D01*
X182465643Y-121030875D01*
X182465641Y-121030880D01*
X182410494Y-121197302D01*
X182410493Y-121197309D01*
X182400000Y-121300013D01*
X179007550Y-121300013D01*
X179007550Y-118410899D01*
X179027235Y-118343860D01*
X179080039Y-118298105D01*
X179131550Y-118286899D01*
X179350406Y-118286899D01*
X179350414Y-118286899D01*
X179350429Y-118286897D01*
X179350432Y-118286897D01*
X179375537Y-118283986D01*
X179375538Y-118283985D01*
X179375541Y-118283985D01*
X179478315Y-118238606D01*
X179557756Y-118159165D01*
X179603135Y-118056391D01*
X179606050Y-118031265D01*
X179606049Y-116498499D01*
X179625734Y-116431461D01*
X179678537Y-116385706D01*
X179730049Y-116374500D01*
X181330613Y-116374500D01*
X181397652Y-116394185D01*
X181418294Y-116410819D01*
X183007985Y-118000510D01*
X183112803Y-118061026D01*
X183133515Y-118072984D01*
X183273525Y-118110500D01*
X183273526Y-118110500D01*
X183295055Y-118110500D01*
X183362094Y-118130185D01*
X183377146Y-118141564D01*
X183391072Y-118153864D01*
X183392794Y-118157765D01*
X183472235Y-118237206D01*
X183498603Y-118248848D01*
X183513018Y-118261581D01*
X183521797Y-118275532D01*
X183534390Y-118286169D01*
X183549191Y-118319063D01*
X183550231Y-118320716D01*
X183550224Y-118321360D01*
X183550701Y-118322419D01*
X183552704Y-118329893D01*
X183557016Y-118345985D01*
X183621812Y-118458217D01*
X183629489Y-118471513D01*
X183629491Y-118471516D01*
X185624181Y-120466206D01*
X185657666Y-120527529D01*
X185660500Y-120553887D01*
X185660500Y-120791618D01*
X185670882Y-120878074D01*
X185670882Y-120878075D01*
X185681702Y-120905513D01*
X185710866Y-120979468D01*
X185725139Y-121015660D01*
X185814499Y-121133500D01*
X185906367Y-121203165D01*
X185932342Y-121222862D01*
X186069923Y-121277117D01*
X186127238Y-121284000D01*
X186156381Y-121287500D01*
X186156382Y-121287500D01*
X186715619Y-121287500D01*
X186744762Y-121284000D01*
X186802077Y-121277117D01*
X186939658Y-121222862D01*
X187057500Y-121133500D01*
X187146862Y-121015658D01*
X187201117Y-120878077D01*
X187211500Y-120791618D01*
X187211500Y-120207382D01*
X187201117Y-120120923D01*
X187146862Y-119983342D01*
X187139247Y-119973300D01*
X187057500Y-119865499D01*
X186939660Y-119776139D01*
X186939658Y-119776138D01*
X186802077Y-119721883D01*
X186802076Y-119721882D01*
X186802074Y-119721882D01*
X186715619Y-119711500D01*
X186715618Y-119711500D01*
X186477887Y-119711500D01*
X186410848Y-119691815D01*
X186390206Y-119675181D01*
X184831818Y-118116793D01*
X184798333Y-118055470D01*
X184795499Y-118029121D01*
X184795499Y-117090136D01*
X184793515Y-117073027D01*
X184792586Y-117065011D01*
X184792585Y-117065009D01*
X184747206Y-116962235D01*
X184675016Y-116890045D01*
X184641531Y-116828722D01*
X184646515Y-116759030D01*
X184659595Y-116733473D01*
X184692004Y-116684969D01*
X184712929Y-116653653D01*
X184767619Y-116521620D01*
X184780012Y-116459319D01*
X184795500Y-116381457D01*
X184795500Y-116238542D01*
X184767620Y-116098385D01*
X184767619Y-116098384D01*
X184767619Y-116098380D01*
X184719225Y-115981547D01*
X184712930Y-115966349D01*
X184712925Y-115966340D01*
X184633532Y-115847521D01*
X184633529Y-115847517D01*
X184532482Y-115746470D01*
X184532478Y-115746467D01*
X184413659Y-115667074D01*
X184413649Y-115667069D01*
X184282568Y-115612773D01*
X184242340Y-115585893D01*
X184070001Y-115413553D01*
X183897657Y-115585895D01*
X183857429Y-115612774D01*
X183726350Y-115667069D01*
X183726340Y-115667074D01*
X183607521Y-115746467D01*
X183607517Y-115746470D01*
X183506470Y-115847517D01*
X183506467Y-115847521D01*
X183427074Y-115966340D01*
X183427071Y-115966347D01*
X183396650Y-116039788D01*
X183352808Y-116094191D01*
X183286514Y-116116255D01*
X183218814Y-116098975D01*
X183194408Y-116080015D01*
X182083283Y-114968890D01*
X183145000Y-114968890D01*
X183145000Y-115151109D01*
X183180545Y-115329805D01*
X183180548Y-115329817D01*
X183250271Y-115498145D01*
X183261498Y-115514947D01*
X183716446Y-115060000D01*
X183716446Y-115059999D01*
X183666719Y-115010272D01*
X183820000Y-115010272D01*
X183820000Y-115109728D01*
X183858060Y-115201614D01*
X183928386Y-115271940D01*
X184020272Y-115310000D01*
X184119728Y-115310000D01*
X184211614Y-115271940D01*
X184281940Y-115201614D01*
X184320000Y-115109728D01*
X184320000Y-115059999D01*
X184423553Y-115059999D01*
X184423553Y-115060001D01*
X184878500Y-115514948D01*
X184878500Y-115514947D01*
X184889723Y-115498154D01*
X184889724Y-115498151D01*
X184959452Y-115329813D01*
X184959454Y-115329805D01*
X184994999Y-115151109D01*
X184995000Y-115151106D01*
X184995000Y-114968894D01*
X184994999Y-114968890D01*
X184959454Y-114790194D01*
X184959451Y-114790182D01*
X184889728Y-114621855D01*
X184889725Y-114621849D01*
X184878500Y-114605050D01*
X184423553Y-115059999D01*
X184320000Y-115059999D01*
X184320000Y-115010272D01*
X184281940Y-114918386D01*
X184211614Y-114848060D01*
X184119728Y-114810000D01*
X184020272Y-114810000D01*
X183928386Y-114848060D01*
X183858060Y-114918386D01*
X183820000Y-115010272D01*
X183666719Y-115010272D01*
X183261498Y-114605050D01*
X183250274Y-114621848D01*
X183180547Y-114790186D01*
X183180545Y-114790194D01*
X183145000Y-114968890D01*
X182083283Y-114968890D01*
X181365891Y-114251498D01*
X183615050Y-114251498D01*
X184070000Y-114706446D01*
X184070001Y-114706446D01*
X184524947Y-114251498D01*
X184508145Y-114240271D01*
X184339817Y-114170548D01*
X184339805Y-114170545D01*
X184178703Y-114138500D01*
X183961297Y-114138500D01*
X183800194Y-114170545D01*
X183800186Y-114170547D01*
X183631848Y-114240274D01*
X183615050Y-114251498D01*
X181365891Y-114251498D01*
X181216574Y-114102181D01*
X181183089Y-114040858D01*
X181188073Y-113971166D01*
X181229945Y-113915233D01*
X181295409Y-113890816D01*
X181304255Y-113890500D01*
X187925500Y-113890500D01*
X187992539Y-113910185D01*
G37*
G04 #@! TD.AperFunction*
G04 #@! TA.AperFunction,Conductor*
G36*
X169809402Y-124176241D02*
G01*
X169815880Y-124182273D01*
X170163619Y-124530012D01*
X170163620Y-124530013D01*
X170238187Y-124604580D01*
X170329513Y-124657307D01*
X170431373Y-124684600D01*
X170482134Y-124684600D01*
X170549173Y-124704285D01*
X170594928Y-124757089D01*
X170597483Y-124763097D01*
X170604299Y-124780381D01*
X170612138Y-124800259D01*
X170701499Y-124918100D01*
X170783720Y-124980450D01*
X170825244Y-125036643D01*
X170829795Y-125106364D01*
X170795930Y-125167478D01*
X170773893Y-125184792D01*
X170624962Y-125276654D01*
X170503055Y-125398561D01*
X170503052Y-125398565D01*
X170412551Y-125545288D01*
X170412546Y-125545299D01*
X170358319Y-125708947D01*
X170348000Y-125809945D01*
X170348000Y-125859100D01*
X171199000Y-125859100D01*
X171266039Y-125878785D01*
X171311794Y-125931589D01*
X171323000Y-125983100D01*
X171323000Y-126235100D01*
X171303315Y-126302139D01*
X171250511Y-126347894D01*
X171199000Y-126359100D01*
X170348001Y-126359100D01*
X170348001Y-126408254D01*
X170358319Y-126509252D01*
X170412546Y-126672900D01*
X170412551Y-126672911D01*
X170503052Y-126819634D01*
X170503055Y-126819638D01*
X170624961Y-126941544D01*
X170624965Y-126941547D01*
X170752094Y-127019962D01*
X170798819Y-127071910D01*
X170810040Y-127140872D01*
X170782197Y-127204954D01*
X170724128Y-127243810D01*
X170686997Y-127249500D01*
X170579387Y-127249500D01*
X170512348Y-127229815D01*
X170491706Y-127213181D01*
X169309205Y-126030680D01*
X169275720Y-125969357D01*
X169280704Y-125899665D01*
X169309205Y-125855318D01*
X169347887Y-125816636D01*
X169477510Y-125687014D01*
X169549984Y-125561485D01*
X169549985Y-125561478D01*
X169553096Y-125553971D01*
X169553202Y-125554015D01*
X169554469Y-125550417D01*
X169555904Y-125547166D01*
X169555906Y-125547165D01*
X169601285Y-125444391D01*
X169604200Y-125419265D01*
X169604199Y-124269953D01*
X169623884Y-124202915D01*
X169676687Y-124157160D01*
X169745846Y-124147216D01*
X169809402Y-124176241D01*
G37*
G04 #@! TD.AperFunction*
G04 #@! TA.AperFunction,Conductor*
G36*
X172448926Y-126472965D02*
G01*
X172481249Y-126496241D01*
X173022827Y-127037819D01*
X173056312Y-127099142D01*
X173051328Y-127168834D01*
X173009456Y-127224767D01*
X172943992Y-127249184D01*
X172935146Y-127249500D01*
X171959003Y-127249500D01*
X171891964Y-127229815D01*
X171846209Y-127177011D01*
X171836265Y-127107853D01*
X171865290Y-127044297D01*
X171893906Y-127019962D01*
X172021034Y-126941547D01*
X172021038Y-126941544D01*
X172142944Y-126819638D01*
X172142947Y-126819634D01*
X172233448Y-126672911D01*
X172233454Y-126672898D01*
X172275862Y-126544919D01*
X172315634Y-126487473D01*
X172380150Y-126460650D01*
X172448926Y-126472965D01*
G37*
G04 #@! TD.AperFunction*
G04 #@! TA.AperFunction,Conductor*
G36*
X176552189Y-117205985D02*
G01*
X176597944Y-117258789D01*
X176609150Y-117310300D01*
X176609150Y-118486400D01*
X177105478Y-118486400D01*
X177105494Y-118486399D01*
X177165022Y-118479998D01*
X177165029Y-118479996D01*
X177299736Y-118429754D01*
X177299743Y-118429750D01*
X177414837Y-118343590D01*
X177414840Y-118343587D01*
X177506319Y-118221389D01*
X177507357Y-118222166D01*
X177550368Y-118179152D01*
X177618641Y-118164298D01*
X177684106Y-118188712D01*
X177697480Y-118200301D01*
X177735785Y-118238606D01*
X177838559Y-118283985D01*
X177863685Y-118286900D01*
X178082550Y-118286899D01*
X178149589Y-118306583D01*
X178195344Y-118359387D01*
X178206550Y-118410899D01*
X178206550Y-124369100D01*
X178186865Y-124436139D01*
X178134061Y-124481894D01*
X178082551Y-124493100D01*
X177863693Y-124493100D01*
X177863667Y-124493102D01*
X177838562Y-124496013D01*
X177838558Y-124496015D01*
X177735785Y-124541393D01*
X177656344Y-124620834D01*
X177610965Y-124723606D01*
X177610965Y-124723608D01*
X177608050Y-124748731D01*
X177608050Y-126076544D01*
X177599405Y-126105984D01*
X177592882Y-126135971D01*
X177589127Y-126140986D01*
X177588365Y-126143583D01*
X177571735Y-126164220D01*
X177422774Y-126313182D01*
X177361454Y-126346666D01*
X177335095Y-126349500D01*
X176788504Y-126349500D01*
X176686644Y-126376793D01*
X176686643Y-126376793D01*
X176603996Y-126424508D01*
X176603997Y-126424509D01*
X176595318Y-126429519D01*
X176561047Y-126463791D01*
X176461655Y-126563182D01*
X176400335Y-126596666D01*
X176373976Y-126599500D01*
X175230808Y-126599500D01*
X175163769Y-126579815D01*
X175118014Y-126527011D01*
X175107635Y-126461207D01*
X175109511Y-126445033D01*
X175110250Y-126438665D01*
X175110249Y-124748736D01*
X175108958Y-124737603D01*
X175107336Y-124723612D01*
X175107335Y-124723610D01*
X175107335Y-124723609D01*
X175061956Y-124620835D01*
X174982515Y-124541394D01*
X174962309Y-124532472D01*
X174879742Y-124496015D01*
X174854618Y-124493100D01*
X174854615Y-124493100D01*
X174635750Y-124493100D01*
X174568711Y-124473415D01*
X174522956Y-124420611D01*
X174511750Y-124369100D01*
X174511750Y-122358524D01*
X174511749Y-122358520D01*
X174509518Y-122350195D01*
X174502496Y-122323985D01*
X174484457Y-122256661D01*
X174431730Y-122165336D01*
X172739073Y-120472679D01*
X172705588Y-120411356D01*
X172710572Y-120341664D01*
X172739071Y-120297319D01*
X174431730Y-118604662D01*
X174484457Y-118513337D01*
X174511750Y-118411476D01*
X174511750Y-118410899D01*
X174511887Y-118410431D01*
X174512811Y-118403416D01*
X174513904Y-118403560D01*
X174531435Y-118343860D01*
X174584239Y-118298105D01*
X174635750Y-118286899D01*
X174854606Y-118286899D01*
X174854614Y-118286899D01*
X174854629Y-118286897D01*
X174854632Y-118286897D01*
X174879737Y-118283986D01*
X174879738Y-118283985D01*
X174879741Y-118283985D01*
X174982515Y-118238606D01*
X175020820Y-118200300D01*
X175082141Y-118166816D01*
X175151832Y-118171800D01*
X175207766Y-118213671D01*
X175217253Y-118228432D01*
X175303459Y-118343587D01*
X175303462Y-118343590D01*
X175418556Y-118429750D01*
X175418563Y-118429754D01*
X175553270Y-118479996D01*
X175553277Y-118479998D01*
X175612805Y-118486399D01*
X175612822Y-118486400D01*
X176109150Y-118486400D01*
X176109150Y-117310300D01*
X176128835Y-117243261D01*
X176181639Y-117197506D01*
X176233150Y-117186300D01*
X176485150Y-117186300D01*
X176552189Y-117205985D01*
G37*
G04 #@! TD.AperFunction*
G04 #@! TA.AperFunction,Conductor*
G36*
X161914203Y-124781042D02*
G01*
X161920681Y-124787074D01*
X163283520Y-126149913D01*
X163317005Y-126211236D01*
X163312021Y-126280928D01*
X163270149Y-126336861D01*
X163215238Y-126360067D01*
X163052587Y-126385829D01*
X162908716Y-126432575D01*
X162838875Y-126434570D01*
X162782718Y-126402325D01*
X162043915Y-125663522D01*
X162043913Y-125663520D01*
X161986176Y-125630185D01*
X161952589Y-125610793D01*
X161901657Y-125597146D01*
X161850727Y-125583500D01*
X161850726Y-125583500D01*
X161795423Y-125583500D01*
X161728384Y-125563815D01*
X161682629Y-125511011D01*
X161672685Y-125441853D01*
X161676346Y-125424906D01*
X161706100Y-125322489D01*
X161708999Y-125285649D01*
X161709000Y-125285634D01*
X161709000Y-124874755D01*
X161728685Y-124807716D01*
X161781489Y-124761961D01*
X161850647Y-124752017D01*
X161914203Y-124781042D01*
G37*
G04 #@! TD.AperFunction*
G04 #@! TA.AperFunction,Conductor*
G36*
X164579133Y-123989772D02*
G01*
X164635067Y-124031643D01*
X164659484Y-124097108D01*
X164659800Y-124105954D01*
X164659800Y-125419256D01*
X164659802Y-125419282D01*
X164663789Y-125453658D01*
X164662104Y-125453853D01*
X164660926Y-125512807D01*
X164621984Y-125570818D01*
X164557860Y-125598566D01*
X164542671Y-125599500D01*
X163917255Y-125599500D01*
X163850216Y-125579815D01*
X163829574Y-125563181D01*
X163578969Y-125312576D01*
X163545484Y-125251253D01*
X163550468Y-125181561D01*
X163592340Y-125125628D01*
X163604643Y-125117511D01*
X163668716Y-125080520D01*
X163780520Y-124968716D01*
X163859577Y-124831784D01*
X163900500Y-124679057D01*
X163900500Y-124617255D01*
X163920185Y-124550216D01*
X163936819Y-124529574D01*
X164181893Y-124284500D01*
X164448121Y-124018271D01*
X164509442Y-123984788D01*
X164579133Y-123989772D01*
G37*
G04 #@! TD.AperFunction*
G04 #@! TA.AperFunction,Conductor*
G36*
X161357979Y-122550810D02*
G01*
X161363941Y-122549661D01*
X161391116Y-122560540D01*
X161419194Y-122568785D01*
X161423168Y-122573372D01*
X161428806Y-122575629D01*
X161445788Y-122599476D01*
X161464949Y-122621589D01*
X161465812Y-122627595D01*
X161469335Y-122632542D01*
X161470727Y-122661780D01*
X161474893Y-122690747D01*
X161472445Y-122697820D01*
X161472660Y-122702333D01*
X161459543Y-122735099D01*
X161442014Y-122765461D01*
X161440423Y-122768216D01*
X161426780Y-122819133D01*
X161414596Y-122864603D01*
X161378230Y-122924263D01*
X161315383Y-122954791D01*
X161260227Y-122951585D01*
X161161492Y-122922900D01*
X161159000Y-122922703D01*
X161159000Y-124271000D01*
X161139315Y-124338039D01*
X161086511Y-124383794D01*
X161035000Y-124395000D01*
X160783000Y-124395000D01*
X160715961Y-124375315D01*
X160670206Y-124322511D01*
X160659000Y-124271000D01*
X160659000Y-122922702D01*
X160631833Y-122897599D01*
X160595955Y-122837644D01*
X160598186Y-122767810D01*
X160628302Y-122718850D01*
X160761736Y-122585416D01*
X160823057Y-122551934D01*
X160849415Y-122549100D01*
X161352155Y-122549100D01*
X161357979Y-122550810D01*
G37*
G04 #@! TD.AperFunction*
G04 #@! TA.AperFunction,Conductor*
G36*
X169991802Y-119743598D02*
G01*
X170013055Y-119744104D01*
X170024958Y-119752160D01*
X170038872Y-119755753D01*
X170053312Y-119771350D01*
X170070918Y-119783266D01*
X170076575Y-119796477D01*
X170086339Y-119807023D01*
X170090054Y-119827952D01*
X170098423Y-119847494D01*
X170099300Y-119862217D01*
X170099300Y-121497074D01*
X170099300Y-121602528D01*
X170108944Y-121638520D01*
X170126593Y-121704390D01*
X170150108Y-121745118D01*
X170179320Y-121795714D01*
X170179322Y-121795716D01*
X170493381Y-122109775D01*
X170526866Y-122171098D01*
X170529700Y-122197456D01*
X170529700Y-122826757D01*
X170529702Y-122826783D01*
X170532613Y-122851888D01*
X170532615Y-122851892D01*
X170577993Y-122954665D01*
X170577994Y-122954666D01*
X170657435Y-123034107D01*
X170760209Y-123079486D01*
X170785335Y-123082401D01*
X171199845Y-123082400D01*
X171221090Y-123088638D01*
X171243178Y-123090218D01*
X171253960Y-123098289D01*
X171266883Y-123102084D01*
X171281384Y-123118820D01*
X171299111Y-123132090D01*
X171303817Y-123144708D01*
X171312638Y-123154888D01*
X171315789Y-123176806D01*
X171323528Y-123197554D01*
X171320665Y-123210714D01*
X171322582Y-123224047D01*
X171313382Y-123244190D01*
X171308676Y-123265827D01*
X171295407Y-123283552D01*
X171293557Y-123287603D01*
X171287525Y-123294081D01*
X171121473Y-123460133D01*
X171060150Y-123493618D01*
X171047034Y-123495427D01*
X171047062Y-123495658D01*
X170956925Y-123506482D01*
X170956924Y-123506482D01*
X170819339Y-123560739D01*
X170701499Y-123650099D01*
X170664511Y-123698877D01*
X170608319Y-123740400D01*
X170538598Y-123744952D01*
X170478026Y-123711633D01*
X169873415Y-123107022D01*
X169873413Y-123107020D01*
X169807776Y-123069124D01*
X169782089Y-123054293D01*
X169706751Y-123034107D01*
X169680227Y-123027000D01*
X169305400Y-123027000D01*
X169238361Y-123007315D01*
X169192606Y-122954511D01*
X169181400Y-122903000D01*
X169181400Y-122170000D01*
X165082600Y-122170000D01*
X165082600Y-122903000D01*
X165062915Y-122970039D01*
X165010111Y-123015794D01*
X164958600Y-123027000D01*
X164419773Y-123027000D01*
X164317913Y-123054293D01*
X164317910Y-123054294D01*
X164283902Y-123073929D01*
X164269057Y-123082500D01*
X164258426Y-123088638D01*
X164226588Y-123107019D01*
X164226585Y-123107021D01*
X163370426Y-123963181D01*
X163309103Y-123996666D01*
X163282745Y-123999500D01*
X163220943Y-123999500D01*
X163068216Y-124040423D01*
X163068209Y-124040426D01*
X162931290Y-124119475D01*
X162931282Y-124119481D01*
X162819479Y-124231284D01*
X162782491Y-124295350D01*
X162764395Y-124312603D01*
X162749414Y-124332616D01*
X162739546Y-124336296D01*
X162731923Y-124343565D01*
X162707374Y-124348295D01*
X162683950Y-124357033D01*
X162673657Y-124354793D01*
X162663316Y-124356787D01*
X162640107Y-124347495D01*
X162615677Y-124342181D01*
X162602852Y-124332580D01*
X162598452Y-124330819D01*
X162587423Y-124321030D01*
X162436819Y-124170426D01*
X162403334Y-124109103D01*
X162400500Y-124082745D01*
X162400500Y-123500098D01*
X162420185Y-123433059D01*
X162436819Y-123412417D01*
X162455552Y-123393684D01*
X162480520Y-123368716D01*
X162559577Y-123231784D01*
X162600500Y-123079057D01*
X162600500Y-122920943D01*
X162559577Y-122768216D01*
X162556947Y-122763660D01*
X162480524Y-122631290D01*
X162480518Y-122631282D01*
X162368717Y-122519481D01*
X162368709Y-122519475D01*
X162231790Y-122440426D01*
X162231787Y-122440424D01*
X162231784Y-122440423D01*
X162231780Y-122440422D01*
X162224277Y-122437314D01*
X162224959Y-122435665D01*
X162173876Y-122404523D01*
X162143351Y-122341675D01*
X162151650Y-122272300D01*
X162177952Y-122233440D01*
X163578573Y-120832818D01*
X163639896Y-120799334D01*
X163666254Y-120796500D01*
X164958600Y-120796500D01*
X165025639Y-120816185D01*
X165071394Y-120868989D01*
X165082600Y-120920500D01*
X165082600Y-121670000D01*
X169181400Y-121670000D01*
X169181400Y-120665672D01*
X169181399Y-120665655D01*
X169174998Y-120606127D01*
X169174996Y-120606120D01*
X169124754Y-120471413D01*
X169124750Y-120471406D01*
X169089943Y-120424910D01*
X169065525Y-120359446D01*
X169080376Y-120291173D01*
X169129781Y-120241767D01*
X169189207Y-120226599D01*
X169348564Y-120226599D01*
X169348579Y-120226597D01*
X169348582Y-120226597D01*
X169373687Y-120223686D01*
X169373688Y-120223685D01*
X169373691Y-120223685D01*
X169476465Y-120178306D01*
X169555906Y-120098865D01*
X169601285Y-119996091D01*
X169604200Y-119970965D01*
X169604200Y-119870350D01*
X169606170Y-119863638D01*
X169604948Y-119856750D01*
X169615886Y-119830549D01*
X169623885Y-119803311D01*
X169629171Y-119798730D01*
X169631867Y-119792274D01*
X169655237Y-119776144D01*
X169676689Y-119757556D01*
X169684995Y-119755605D01*
X169689370Y-119752586D01*
X169716200Y-119748277D01*
X169724121Y-119746417D01*
X169726157Y-119746350D01*
X169783676Y-119746350D01*
X169928624Y-119746350D01*
X169928625Y-119746350D01*
X169956977Y-119738752D01*
X169971221Y-119738284D01*
X169991802Y-119743598D01*
G37*
G04 #@! TD.AperFunction*
G04 #@! TA.AperFunction,Conductor*
G36*
X164580699Y-117918185D02*
G01*
X164626454Y-117970989D01*
X164636398Y-118040147D01*
X164607373Y-118103703D01*
X164603608Y-118107745D01*
X164516949Y-118223506D01*
X164516945Y-118223513D01*
X164466703Y-118358220D01*
X164466701Y-118358227D01*
X164460300Y-118417755D01*
X164460300Y-118945850D01*
X165103000Y-118945850D01*
X165170039Y-118965535D01*
X165215794Y-119018339D01*
X165227000Y-119069850D01*
X165227000Y-119321850D01*
X165207315Y-119388889D01*
X165154511Y-119434644D01*
X165103000Y-119445850D01*
X164460300Y-119445850D01*
X164460300Y-119871500D01*
X164440615Y-119938539D01*
X164387811Y-119984294D01*
X164336300Y-119995500D01*
X163509339Y-119995500D01*
X163509323Y-119995499D01*
X163501727Y-119995499D01*
X163396273Y-119995499D01*
X163306710Y-120019498D01*
X163306709Y-120019497D01*
X163294414Y-120022792D01*
X163294410Y-120022794D01*
X163203085Y-120075521D01*
X161566826Y-121711781D01*
X161505503Y-121745266D01*
X161479145Y-121748100D01*
X161015786Y-121748100D01*
X160948747Y-121728415D01*
X160902992Y-121675611D01*
X160893048Y-121606453D01*
X160922073Y-121542897D01*
X160928105Y-121536419D01*
X161130967Y-121333557D01*
X161349510Y-121115014D01*
X161421984Y-120989485D01*
X161424668Y-120979464D01*
X161424671Y-120979460D01*
X161424670Y-120979460D01*
X161459500Y-120849475D01*
X161459500Y-120510503D01*
X161466459Y-120469548D01*
X161486501Y-120412269D01*
X161506646Y-120354699D01*
X161507453Y-120346092D01*
X161509500Y-120324269D01*
X161509500Y-119674386D01*
X161529185Y-119607347D01*
X161545815Y-119586709D01*
X162485780Y-118646743D01*
X162511463Y-118627037D01*
X162518482Y-118622984D01*
X162518485Y-118622984D01*
X162528708Y-118617082D01*
X162644015Y-118550510D01*
X163259706Y-117934819D01*
X163321029Y-117901334D01*
X163347387Y-117898500D01*
X164513660Y-117898500D01*
X164580699Y-117918185D01*
G37*
G04 #@! TD.AperFunction*
G04 #@! TA.AperFunction,Conductor*
G36*
X172312152Y-114452185D02*
G01*
X172357907Y-114504989D01*
X172367851Y-114574147D01*
X172338826Y-114637703D01*
X172332794Y-114644181D01*
X171771491Y-115205483D01*
X171771490Y-115205485D01*
X171704807Y-115320984D01*
X171704806Y-115320984D01*
X171699017Y-115331011D01*
X171699016Y-115331015D01*
X171661500Y-115471025D01*
X171661500Y-115471027D01*
X171661500Y-116560612D01*
X171641815Y-116627651D01*
X171625181Y-116648293D01*
X170957418Y-117316056D01*
X170896095Y-117349541D01*
X170826403Y-117344557D01*
X170825536Y-117344000D01*
X170022500Y-117344000D01*
X170022500Y-118068999D01*
X170025806Y-118072305D01*
X170059291Y-118133628D01*
X170054307Y-118203320D01*
X170025806Y-118247667D01*
X169811343Y-118462131D01*
X169750020Y-118495616D01*
X169680329Y-118490632D01*
X169624395Y-118448761D01*
X169606112Y-118413921D01*
X169601982Y-118401622D01*
X169601285Y-118395609D01*
X169595765Y-118383109D01*
X169593950Y-118377701D01*
X169593532Y-118366828D01*
X169587500Y-118338230D01*
X169587500Y-118011027D01*
X169587500Y-118011025D01*
X169549984Y-117871015D01*
X169539872Y-117853500D01*
X169539111Y-117852182D01*
X169522500Y-117790185D01*
X169522500Y-116844000D01*
X170022500Y-116844000D01*
X170809999Y-116844000D01*
X170809999Y-116807360D01*
X170809998Y-116807345D01*
X170799680Y-116706347D01*
X170745453Y-116542699D01*
X170745448Y-116542688D01*
X170654947Y-116395965D01*
X170654944Y-116395961D01*
X170533038Y-116274055D01*
X170533034Y-116274052D01*
X170386311Y-116183551D01*
X170386300Y-116183546D01*
X170222652Y-116129319D01*
X170121654Y-116119000D01*
X170022500Y-116119000D01*
X170022500Y-116844000D01*
X169522500Y-116844000D01*
X169522500Y-116118999D01*
X169423360Y-116119000D01*
X169423344Y-116119001D01*
X169322347Y-116129319D01*
X169158699Y-116183546D01*
X169158688Y-116183551D01*
X169011965Y-116274052D01*
X169011961Y-116274055D01*
X168890055Y-116395961D01*
X168890050Y-116395967D01*
X168879034Y-116413827D01*
X168827085Y-116460550D01*
X168758122Y-116471770D01*
X168698573Y-116447531D01*
X168613659Y-116383139D01*
X168613660Y-116383139D01*
X168613658Y-116383138D01*
X168476077Y-116328883D01*
X168476076Y-116328882D01*
X168476074Y-116328882D01*
X168389619Y-116318500D01*
X168389618Y-116318500D01*
X167705382Y-116318500D01*
X167705381Y-116318500D01*
X167611029Y-116329831D01*
X167610667Y-116326817D01*
X167555095Y-116324671D01*
X167497820Y-116284655D01*
X167474825Y-116239228D01*
X167437577Y-116100216D01*
X167436516Y-116098379D01*
X167358524Y-115963290D01*
X167358518Y-115963282D01*
X167246717Y-115851481D01*
X167246709Y-115851475D01*
X167109790Y-115772426D01*
X167109786Y-115772424D01*
X167109784Y-115772423D01*
X166957057Y-115731500D01*
X166798943Y-115731500D01*
X166675078Y-115764689D01*
X166605228Y-115763026D01*
X166547366Y-115723863D01*
X166527632Y-115690409D01*
X166481862Y-115574342D01*
X166480933Y-115573117D01*
X166392500Y-115456499D01*
X166274660Y-115367139D01*
X166274658Y-115367138D01*
X166137077Y-115312883D01*
X166137076Y-115312882D01*
X166137074Y-115312882D01*
X166050619Y-115302500D01*
X166050618Y-115302500D01*
X165466382Y-115302500D01*
X165466381Y-115302500D01*
X165379925Y-115312882D01*
X165379924Y-115312882D01*
X165242339Y-115367139D01*
X165124498Y-115456500D01*
X165062148Y-115538721D01*
X165005955Y-115580244D01*
X164936234Y-115584795D01*
X164875120Y-115550929D01*
X164857807Y-115528892D01*
X164765947Y-115379965D01*
X164765944Y-115379961D01*
X164644038Y-115258055D01*
X164644034Y-115258052D01*
X164497311Y-115167551D01*
X164497300Y-115167546D01*
X164333652Y-115113319D01*
X164232654Y-115103000D01*
X164183500Y-115103000D01*
X164183500Y-115954000D01*
X164163815Y-116021039D01*
X164111011Y-116066794D01*
X164059500Y-116078000D01*
X163933500Y-116078000D01*
X163933500Y-116204000D01*
X163913815Y-116271039D01*
X163861011Y-116316794D01*
X163809500Y-116328000D01*
X162946001Y-116328000D01*
X162946001Y-116364654D01*
X162956319Y-116465652D01*
X163010546Y-116629300D01*
X163013601Y-116635851D01*
X163012215Y-116636497D01*
X163028447Y-116695823D01*
X163007523Y-116762486D01*
X162953880Y-116807254D01*
X162936562Y-116813299D01*
X162857441Y-116834500D01*
X162857440Y-116834499D01*
X162855516Y-116835015D01*
X162855511Y-116835017D01*
X162729988Y-116907487D01*
X162729983Y-116907491D01*
X162064217Y-117573256D01*
X162038536Y-117592962D01*
X161905988Y-117669487D01*
X161905983Y-117669491D01*
X161390969Y-118184504D01*
X161329646Y-118217989D01*
X161262334Y-118213865D01*
X161143697Y-118172353D01*
X161143699Y-118172353D01*
X161113270Y-118169500D01*
X161113266Y-118169500D01*
X160704734Y-118169500D01*
X160704730Y-118169500D01*
X160674300Y-118172353D01*
X160674298Y-118172353D01*
X160546119Y-118217206D01*
X160546117Y-118217207D01*
X160451691Y-118286897D01*
X160436850Y-118297850D01*
X160408308Y-118336524D01*
X160373770Y-118383321D01*
X160355846Y-118396929D01*
X160341124Y-118413948D01*
X160328556Y-118417649D01*
X160318123Y-118425571D01*
X160295688Y-118427329D01*
X160274101Y-118433687D01*
X160261527Y-118430006D01*
X160248466Y-118431030D01*
X160228642Y-118420379D01*
X160207045Y-118414057D01*
X160193822Y-118401671D01*
X160186917Y-118397962D01*
X160180353Y-118390966D01*
X160177141Y-118387265D01*
X160111150Y-118297850D01*
X160078836Y-118274001D01*
X160069853Y-118263651D01*
X160060787Y-118243843D01*
X160047615Y-118226494D01*
X160044099Y-118207381D01*
X160040776Y-118200119D01*
X160041645Y-118194037D01*
X160039500Y-118182372D01*
X160039500Y-116672781D01*
X160059185Y-116605742D01*
X160111989Y-116559987D01*
X160181147Y-116550043D01*
X160244703Y-116579068D01*
X160278853Y-116627289D01*
X160320727Y-116733473D01*
X160325139Y-116744660D01*
X160414499Y-116862500D01*
X160480402Y-116912475D01*
X160532342Y-116951862D01*
X160669923Y-117006117D01*
X160727562Y-117013039D01*
X160756381Y-117016500D01*
X160756382Y-117016500D01*
X161315619Y-117016500D01*
X161337232Y-117013904D01*
X161402077Y-117006117D01*
X161539658Y-116951862D01*
X161657500Y-116862500D01*
X161746862Y-116744658D01*
X161801117Y-116607077D01*
X161811500Y-116520618D01*
X161811500Y-116070753D01*
X161831185Y-116003714D01*
X161847815Y-115983076D01*
X162039546Y-115791345D01*
X162946000Y-115791345D01*
X162946000Y-115828000D01*
X163683500Y-115828000D01*
X163683500Y-115103000D01*
X163683499Y-115102999D01*
X163634361Y-115103000D01*
X163634343Y-115103001D01*
X163533347Y-115113319D01*
X163369699Y-115167546D01*
X163369688Y-115167551D01*
X163222965Y-115258052D01*
X163222961Y-115258055D01*
X163101055Y-115379961D01*
X163101052Y-115379965D01*
X163010551Y-115526688D01*
X163010546Y-115526699D01*
X162956319Y-115690347D01*
X162946000Y-115791345D01*
X162039546Y-115791345D01*
X162043910Y-115786981D01*
X162043913Y-115786980D01*
X162118480Y-115712413D01*
X162171207Y-115621087D01*
X162176613Y-115600913D01*
X162198501Y-115519227D01*
X162198501Y-115413773D01*
X162198501Y-115406178D01*
X162198500Y-115406160D01*
X162198500Y-115279255D01*
X162218185Y-115212216D01*
X162234819Y-115191574D01*
X162957574Y-114468819D01*
X163018897Y-114435334D01*
X163045255Y-114432500D01*
X172245113Y-114432500D01*
X172312152Y-114452185D01*
G37*
G04 #@! TD.AperFunction*
G04 #@! TD*
M02*
